<svg xmlns="http://www.w3.org/2000/svg" height="24" width="24"><path d="M11.998-.004c-1.069 2.619-1.713 4.332-2.903 6.874.73.773 1.625 1.673 3.079 2.69-1.563-.643-2.63-1.289-3.426-1.959C7.225 10.778 4.84 15.303 0 24c3.804-2.196 6.753-3.55 9.502-4.067a6.965 6.965 0 0 1-.181-1.63l.005-.121c.06-2.438 1.328-4.312 2.83-4.185 1.502.128 2.67 2.208 2.609 4.645-.012.459-.063.9-.154 1.31 2.719.53 5.636 1.881 9.389 4.048-.74-1.362-1.4-2.59-2.031-3.76-.994-.77-2.03-1.772-4.144-2.857 1.453.377 2.493.813 3.304 1.3-6.413-11.94-6.932-13.527-9.131-18.687z"/></svg>
