<svg xmlns="http://www.w3.org/2000/svg" height="24" width="24"><path d="M18.85 2.178c-1.645.009-3.28.448-5.022.958-3.032.888-5.73 1.368-8.76.158l.826 1.442A5414.386 5414.386 0 0 0 7.63 7.771c2.412.668 4.41-.197 6.555-1.247 2.574-1.259 4.9-2.391 7.841-1.735-2.486-1.219-4.739-.917-7.338-.227 2.545-1.268 4.94-2.254 7.823-1.579a8.308 8.308 0 0 0-3.662-.805zM4.7 3.338a.271.271 0 0 0-.128.038c-.167.09-.08.258-.08.258l3.14 6.498h.76L4.845 3.43s-.04-.091-.145-.09zm12.366 6.23c-1.109 0-1.774.584-1.774 1.43.008.742.604 1.19 1.155 1.46.459.225 1.04.585 1.04 1.19 0 .375-.26.757-.826.757-.65 0-1.162-.69-1.315-1.176-.062-.082-.238-.074-.291.023 0 .509.1 1.048.245 1.213.16.09.596.284 1.3.284 1.155 0 1.927-.599 1.927-1.52 0-.823-.605-1.258-1.079-1.505l-.504-.262c-.383-.195-.696-.509-.696-.854 0-.374.275-.696.78-.696.55 0 .88.547 1.01.929.069.074.26.067.298-.023 0-.501-.077-.906-.138-1.07a1.847 1.847 0 0 1-.26-.06c-.306-.09-.62-.12-.872-.12zm-4.52.097c-.765 0-1.324.03-1.905.067-.115.008-.1.233-.03.27l.206.03c.321.038.336.12.336.876v2.644c0 .673-.045.726-.39.793l-.22.045c-.062.023-.062.217 0 .262.435-.015.81-.023 1.184-.023.222 0 .513.03.788.03.467 0 1.04-.022 1.522-.186.482-.165.902-.57.895-1.259-.008-.726-.52-1.115-1.125-1.242-.068-.016-.107-.038-.107-.06 0-.038.077-.068.153-.083.237-.06.78-.307.78-.936 0-.441-.199-.756-.527-.95-.337-.196-.826-.278-1.56-.278zm8.12 0c-.81 0-1.408.03-2.05.067-.092.008-.091.225-.015.263l.145.015c.352.037.367.18.367.89v2.652c0 .689-.045.74-.39.8l-.237.038c-.061.038-.061.217 0 .262.436-.015.826-.023 1.193-.023.276 0 .658.045 1.017.045.788 0 1.416-.097 1.936-.351.88-.427 1.368-1.236 1.368-2.24 0-.935-.55-1.819-1.552-2.17-.528-.188-1.155-.248-1.782-.248zm-20.601 0c-.077.023-.084.202-.03.262l.214.03c.267.053.382.128.435.255.054.105.054.225.054.636v1.902c0 .607-.03 1.168-.107 1.37-.069.157-.214.203-.42.248l-.13.022c-.062.06-.046.217 0 .262.29-.015.573-.023.856-.023.306 0 .612.008 1.025.023.046-.045.06-.202 0-.262l-.214-.03c-.199-.037-.375-.083-.444-.24-.084-.202-.115-.763-.115-1.37v-1.453c0-.277 0-.404.038-.479.138.113.398.42.834.959l1.767 2.14c.36.435.612.818.62.818.183 0 .397-.083.45-.172-.015-.248-.015-.72-.015-1.206v-1.79c0-.607.031-1.168.115-1.37.07-.157.214-.202.413-.247l.138-.023c.06-.06.046-.216 0-.261-.299.015-.574.022-.857.022-.314 0-.612-.008-1.025-.022-.045.045-.06.201 0 .261l.207.03c.206.038.374.083.443.24.084.203.115.764.115 1.37V12.6c0 .135 0 .263-.03.338-.176-.173-.39-.435-.735-.824l-.643-.741c-.688-.801-1.185-1.37-1.261-1.707a7.4 7.4 0 0 1-.642.022c-.314 0-.697-.008-1.056-.022zm12.51.345c.528 0 .942.322.942.973 0 .45-.245.861-.903.861-.398 0-.405-.015-.405-.21V10.4c0-.329.007-.39.367-.39zm8.083 0c1.384 0 2.111.8 2.111 2.148 0 1.019-.452 2.172-1.775 2.172-.275 0-.496-.067-.634-.217-.138-.158-.153-.427-.153-.839v-2.733c0-.232.008-.374.054-.434s.19-.097.397-.097zm-11.453.858a.19.19 0 0 0-.087.018c-.237.33-.428.486-.565.584-.184.12-.398.255-.635.337-.061.052-.038.202.046.232H8.2c.138 0 .146.015.146.173v1.668c0 .495.221.855.856.855.474 0 .888-.21 1.102-.435.015-.09-.031-.172-.108-.195a.637.637 0 0 1-.32.113c-.535 0-.536-.464-.536-.884v-1.122c0-.165.008-.173.107-.173h.689c.076-.045.099-.18.099-.262 0-.067-.023-.113-.061-.143h-.681c-.138 0-.145-.007-.145-.15v-.56c-.024-.038-.087-.055-.143-.056zm-2.49.662c-.956 0-1.651.733-1.651 1.677 0 .816.558 1.528 1.59 1.528a1.47 1.47 0 0 0 1.339-.855.172.172 0 0 0-.2-.171c-.206.344-.496.389-.71.389-.712 0-1.079-.547-1.079-1.109 0-.12.016-.134.192-.134h1.468c.237 0 .275-.105.275-.247 0-.577-.428-1.078-1.224-1.078zm-.053.344c.26 0 .405.165.405.413 0 .074-.015.148-.053.171a.623.623 0 0 1-.314.068h-.283c-.245 0-.351-.008-.351-.113 0-.24.275-.539.596-.539zm5.968.3c.734 0 1.117.456 1.117 1.108 0 .606-.299 1.033-.865 1.033-.596 0-.673-.367-.673-.95v-.884c0-.3 0-.308.42-.308zm-2.272 3.603l2.386 4.938s.24.464.756.208c.516-.257.257-.66.257-.66h-.001l-2.375-4.486h-1.023z"/></svg>
