<svg xmlns="http://www.w3.org/2000/svg" width="24" height="24"><path d="M12 0C5.373 0 0 5.372 0 12s5.373 12 12 12 12-5.372 12-12S18.627 0 12 0zm.058 1.662C17.767 1.662 22.4 6.291 22.4 12c0 5.71-4.633 10.338-10.342 10.338-3.084 0-5.85-1.351-7.744-3.492.779-.604 2.081-.457 3.686-.274.769.088 1.646.188 2.55.208 2.528.015 5.248-.447 6.926-1.18 1.085-.476 1.78-.79 2.215-1.185.156-.128.238-.343.322-.565l.058-.15c.07-.18.17-.567.216-.779.02-.092.03-.191-.035-.243l-.234.045c-.737.441-2.577 1.283-4.3 1.317-2.137.044-6.442-2.15-6.891-2.382l-.045-.054c-.107-.257-.752-1.786-.888-2.108 3.099 2.04 5.668 3.17 7.638 3.346 2.189.194 3.897-1 4.627-1.512.143-.097.252-.173.296-.19l.049-.08c-.121-.769-1.27-4.493-2.135-5.387-.24-.245-.43-.484-.818-.712C14.421 5.137 6.987 4.038 6.64 3.987l-.058.017-.022.049-.03 1.715a44.215 44.215 0 0 0-2.18-.654c1.478-1.83 3.744-3.452 7.709-3.452zm2.731 5.472a3.192 3.192 0 0 1 3.23 3.293 3.163 3.163 0 0 1-1.007 2.21 3.157 3.157 0 0 1-2.28.857A3.199 3.199 0 0 1 11.66 10.2c.03-.849.39-1.637 1.012-2.214a3.137 3.137 0 0 1 2.117-.853zm-.084.937a2.192 2.192 0 0 0-1.37.592c-.43.404-.684.95-.703 1.542a2.227 2.227 0 0 0 2.14 2.299 2.208 2.208 0 0 0 2.294-2.14 2.223 2.223 0 0 0-2.145-2.293 2.177 2.177 0 0 0-.216 0zm.583 1.11c.544 0 .982.294.982.658 0 .361-.438.658-.982.658-.545 0-.985-.297-.985-.658 0-.364.44-.659.985-.659z"/></svg>