<svg xmlns="http://www.w3.org/2000/svg" height="24" width="24"><path d="M13.696 1.306c-.203.47-.147 1.02-.294 1.51-.034.112-.145.452-.307.429-.333-.048-.163-.688-.547-.7l.122.935c-.578.072-.5-.83-.735-1.196-.27-.422-.334.191-.316.38.012.121.035.24.05.362.025.21.03.393.004.603-.552-.007-.347-.731-.752-.843l.03.875c-.613-.006-.891-.558-1.16-1.026-.112-.196-.262-.573-.531-.452.126.543.424 1.061.454 1.627.008.146-.13.518-.332.45-.468-.158-.405-1.009-.795-1.232-.08-.045-.205-.006-.292-.002 0 .45.2.997.357 1.419.034.09.128.41-.07.404-.353-.01-.44-.697-.8-.617.044.185.154.335.215.513.037.109.109.22.129.332.043.248-.272.268-.434.22-.384-.114-.66-.426-.936-.7-.076-.077-.275-.346-.402-.225-.141.136.136.373.215.464.235.271.489.59.6.935.049.149.058.36-.09.461-.146.101-.385-.08-.503-.158-.362-.238-.72-.655-1.175-.664l-.107.27.29.394.752.843-.877-.362c.036.229.585.506.477.741-.064.14-.381.142-.506.125-.446-.064-.763-.394-1.177-.513-.367-.105-.298.177-.09.34.071.058.142.12.212.18.125.107.244.217.361.334.183.183.344.38.513.574l-.874-.032v.061l.845.393-.152.604c-.244 0-.442-.069-.664-.165-.151-.066-.31-.175-.481-.163-.206.014-.328.202-.19.377.206.263.62.413.883.617.101.078.245.213.131.346-.225.263-.83-.074-1.127.014v.058c.275.16.84.253 1 .55.128.231-.232.754-.487.734-.227-.019-.436-.275-.603-.41-.401-.321-.83-.699-1.297-.921-.802-.381-1.598.226-2.233.621.081.257.402-.016.603.03.271.061.477.312.651.513.84.967 1.544 2.065 1.858 3.32.082.33.224.722-.023 1.018-.066.08-.167.09-.24.156-.054.049-.05.12.025.142.138.043.34-.023.475-.056.443-.107.949-.345 1.15-.78.125-.27.168-.795.479-.903.069.29.396.673.364.964-.028.26-.302.559-.461.75-.057.069-.195.22-.113.317.081.097.25-.113.3-.16.23-.217.73-.558.866-.062.118.432-.263 1.128-.452 1.508-.053.105-.296.436-.201.553.11.136.34-.218.388-.282.19-.25.856-.986 1.21-.721.43.323.283.553.12.992-.047.124-.218.434-.103.551.112.114.26.01.317-.1.103-.195.38-.778.66-.63.174.094.44.251.542.425.158.272.022.816-.02 1.112-.025.17-.209.702-.057.825.14.114.254-.228.296-.312.149-.295.321-.598.542-.845.08-.089.19-.238.326-.213.7.132-.014.83.273 1.187.058.072.216.065.3.081l.362-.933c.184.07.454.094.59.246.114.128.137.344.17.506.092.455.144.897.085 1.358.058.042.147.138.224.089.097-.062.111-.317.145-.42.106-.334.267-.651.418-.966.1-.207.371-.427.567-.142.2.292.119.805.244 1.139.32-.158.355-.827.361-1.148l.416.061.251.513.45 1.297c.233-.09.161-.539.187-.755.036-.293.102-.88.317-1.098.086-.088.26-.095.372-.138.128.312.198.666.353.965.06.117.197.241.337.17.133-.069.127-.224.11-.35-.042-.313-.113-.621-.137-.936.598-.042.948.442 1.324.845.145.156.272.363.485.423l-.31-.907-.17-.842c.216-.091.674-.535.903-.47.34.096.6 1.043 1.024.82.18-.095.087-.256.002-.382-.126-.188-.504-.639-.463-.875.03-.174.322-.377.492-.375.391.006 1.071.303 1.297.617l.271-.03c-.04-.54-.849-.787-.964-1.328a.401.401 0 0 1 .004-.172c.086-.346.293-.194.509-.101.067.029.213.103.268.02.062-.091-.046-.213-.085-.29-.082-.156-.156-.336-.122-.512.281.074.455.242.693.4.057.037.18.131.251.079.075-.055-.034-.167-.07-.208-.106-.123-.432-.421-.4-.601.022-.121.226-.251.31-.334.275-.276.589-.556.813-.875h.032c.533.622 2.203.185 1.99-.755-.132.02-.257.124-.393.077-.594-.205-.45-1.155-1.116-1.161-.049-.62-.298-1.242-.599-1.78-.138-.248-.424-.475-.524-.726-.055-.14-.045-.36-.052-.511.349-.054.177-.408.05-.603-.142-.218-.291-.476-.475-.66-.225-.226-.562-.374-.533-.757.027-.357.641-.313.746-.635-.183.008-.363.054-.543.084-.448.074-.525-.076-.316-.475.183-.349.473-.614.73-.906.082-.093.336-.306.205-.44-.107-.112-.285.058-.377.119-.333.22-.706.384-1.087.502-.113.035-.448.165-.486-.037-.05-.271.463-.32.396-.625-.206.048-.61.372-.807.221-.238-.181.112-.643.15-.856.037-.216-.136-.223-.258-.089-.043.048-.083.1-.122.15-.069.086-.126.17-.17.27-.494-.288.44-.623.265-.89-.063-.095-.177 0-.233.05-.117.103-.56.61-.655.237-.107-.412.108-.908.219-1.297.029-.101.16-.374.034-.447-.186-.107-.269.252-.312.357a2.335 2.335 0 0 1-.615.84c-.086.077-.23.226-.36.19-.186-.051-.188-.569-.182-.727.003-.076.046-.208-.027-.262-.096-.072-.146.072-.16.14-.047.222-.187.856-.516.44-.298-.376.165-1.157-.443-1.315l-.332 1.056c-.398-.087-.31-.655-.212-.965l-.181-.061a3.331 3.331 0 0 1-.11.363c-.162.452-.377.539-.543.03-.127-.389-.082-.808-.145-1.207-.025-.159-.038-.321-.196-.393zm.029.906c.153.364-.008.818.237 1.175.25.364.715.169 1.02.398.107.08.022.255-.007.357-.1.347-.278.605-.466.906.655-.334.875-1.29.965-1.961h.032c-.026.596-.008 1.184 0 1.78.003.271-.037.581.27.633V4.113c.324.093.81.502 1.16.381.179-.061.34-.276.465-.41.095-.103.176-.213.244-.333h.032l-.122.965-.3-.061.664.474.26.226-.201.294-.875.635c.637-.094.96-.564 1.42-.935-.15.63-.492 1.263-.333 1.932h.03l.361-1.449c.274.13.371.476.635.633.382.228.917-.205 1.265-.332-.227.322-.57.547-.632.965l-.272-.12c.236.607.518 1.189.62 1.84.092.594-.025 1.184.015 1.78.02.276.133.517.179.784-.563.191-.666.979-1.207 1.236.044-.189.111-.376.111-.572 0-.14-.066-.282-.03-.422.074-.278.314-.508.412-.784.152-.43.049-.836-.01-1.268l.301.03-.757-1.176-.377-.574.14-.39c-.762.585-1.868 1.186-1.87 2.29l.27-.09.09.665-.422.06v.06c.353.098.723.147 1.058.304.243.115.514.266.682.48.559.709.11 1.818-.312 2.474-.213.33-.594.632-.734.994.382-.091.578-.455.793-.752.091-.127.17-.304.325-.362.24-.09.32.353.371.51.065.2.218.547.18.755-.071.402-.415.663-.34 1.117.165-.202.215-.603.48-.7.17-.063.347.092.514.117.36.053.732-.082.996-.326.286-.263.48-.685.41-1.082-.044-.24-.177-.475-.161-.723.013-.2.146-.364.219-.545.172-.426.151-.911-.258-1.188a.858.858 0 0 0-.361-.138c.033-.222.264-.706.53-.418.188.202.29.56.396.811.389.918.393 2.005-.162 2.865-.394.61-1.02 1.11-1.548 1.598l-.21-.603h-.061c-.07.36.185.772.332 1.086-.33-.075-.646-.414-.997-.361.099.17.748.57.242.752.004.148-.108.253-.199.364-.201.248-.454.617-.766.723l-.574-1.51h-.03c.085.662.314 1.306.611 1.901.153.307.403.612.506.936-.187-.16-.305-.414-.465-.604a6.31 6.31 0 0 0-.954-.89c-.227-.177-.448-.377-.752-.346.345.31.866.475.833 1.056-.009.164-.191.236-.32.296-.34.155-.671.322-1.026.438-.099.032-.281.12-.384.086-.11-.037-.097-.277-.109-.368-.037-.286.122-1.028-.172-1.146-.127 1.009.134 1.929.213 2.926h-.032c-.17-.737-.439-1.557-.838-2.2-.11-.178-.343-.6-.579-.545l.62 1.087.013.46-.452.08-1.297.031c.048-.373.13-.743.199-1.114.015-.081.076-.327-.077-.327-.14 0-.17.409-.19.508-.108.542-.203 1.105-.203 1.659h-.032c0-.913-.41-1.728-.784-2.534-.104.155.042.377.086.543.099.37.113.737.066 1.116-.612-.119-1.274-.28-1.84-.544.149-.358.575-.888.572-1.266-.554.556-.803 1.335-1.085 2.052h-.031l.12-1.449-.21-1.238c-.132.133-.06.4-.04.574.033.275.017.687-.187.9-.112.116-.225.014-.345-.034-.335-.136-.582-.36-.875-.563-.104-.072-.294-.151-.282-.303.033-.432.657-.638.673-1.026-.72.31-1.062 1.087-1.63 1.568.187-.784.783-1.7.636-2.533-.152.084-.146.295-.185.452a4.32 4.32 0 0 1-.39.965c-.4-.231-.718-.622-.982-.994-.073-.103-.233-.262-.235-.393-.002-.128.146-.275.226-.362.244-.265.54-.465.872-.603-.237-.147-.708.2-.967.271.175-.37.65-.73.513-1.175-.393.307-.657.97-.933 1.387H5.7l-.572-1.267.753.27c.023-.269-.359-.372-.572-.422.126-.327.475-.578.391-.965h-.059c-.087.28-.269.76-.574.846l-.09-.484h-.03c-.118.253.03.448-.04.687-.036.125-.218.108-.28.224-.086.158-.091.368-.163.537a1.65 1.65 0 0 1-.906.875l-.036-.54.458-.515-.48.361c-.063-.162-.204-.465-.12-.633.072-.145.253-.24.361-.361l-.484.242c-.162-.422.134-.3.3-.604-.12.07-.323.198-.47.131-.186-.085-.382-.637-.462-.824l.513-.09v-.032c-.242.03-.627.122-.665-.21h.633v-.032l-.712-.077-.194-.253-.42-.545a1.99 1.99 0 0 1 .935 0c-.368-.386-1.026.183-1.329-.452l.755-.15v-.03c-.233 0-.67.136-.874.03-.055-.03-.094-.076-.134-.12-.388-.439.48-.48.766-.441.55.075.975.45 1.358.831.194.193.474.54.755.597.278.055.509-.123.723-.265 0 .212-.021.423.152.574 0-.415.003-.857.067-1.267.024-.152.085-.352.265-.38.225-.035.531.31.693.44.002-.233-.176-.432-.32-.603-.396-.47-1.024-.914-1.58-1.177V9.3c.824.142 1.444.627 2.323.394v-.061L5.31 9.48c.043-.32.275-.732.201-1.055-.1-.44-.568-.645-.745-1.026.306.119.631.29.967.299.188.004.337-.1.513-.14.485-.114.763.121 1.084.445.088-.305-.151-.56-.334-.784-.186-.23-.35-.461-.57-.66-.266-.241-.662-.52-.815-.85.25.048.49.257.693.402.36.256.716.504 1.117.692.21.099.578.265.754.054l-.965-.362c.071-.1.17-.189.222-.302.138-.307-.105-.57-.192-.845.186.068.345.229.542.262.464.077.736-.471 1.087-.653l.242 1.145c.2-.167.11-.492.077-.723-.099-.663-.493-1.25-.59-1.9h.03c.38.816.836 1.695 1.6 2.2l-.279-.363-.477-.72c.095-.039.189-.079.27-.143.527-.424.077-1.014.002-1.519h.029c.065.155.14.316.235.454.441.638 1.023.535 1.697.482l-.18 1.328h.029c.089-.283.258-.516.318-.815.11-.544-.007-1.085-.018-1.63h.032c.047.322.177.63.28.936.162.482.295 1.01.655 1.387L12.49 3.72c.959 0 1.218-.645 1.236-1.507zm4.795 5.841h.032c.138.01.241.187.323.283.238.279.508.575.612.935-.697-.143-1.452-.046-2.142.12.153-.405.445-.833.784-1.1.109-.086.24-.23.391-.238zm1.903.615c.296.115.612.52.723.813l-.665-.09zm-1.374.739c.072 0 .138.01.194.032.365.142.268.9.192 1.188-.062.234-.173.494-.402.603-.168-.3-.415-.494-.723-.639-.155-.073-.41-.1-.518-.242-.103-.137-.208-.647-.067-.782.152-.146.57-.115.766-.115.135 0 .317-.036.483-.043l.075-.002zm1.374.194c.135.01.367 0 .467.102.332.34.147 1.248-.257 1.437l-.116-.667c.013.002.026.005.039.005.103 0 .194-.05.253-.124a.3.3 0 0 0-.12-.495l-.004-.002a.323.323 0 0 0-.13-.03.324.324 0 0 0-.132.032V9.6zm.176 1.93c.442-.03.902.377.802.847-.062.29-.241.604-.527.717-.149.059-.488.04-.499-.174-.01-.2.388-.478.468-.694-.558.427-.9.79-1.659.694v-.03c.447-.33.635-.895 1.06-1.224a.642.642 0 0 1 .355-.136zm-.839 1.598c.229.004.48.038.61.214.133.18.103.428.172.633.052-.216.046-1.023.477-.57.349.368.255 1.16-.088 1.5-.215.214-.734.345-.992.146-.392-.303-.494-.925-.608-1.377-.027-.109-.153-.36-.083-.463.058-.086.207-.08.298-.081.065-.001.138-.004.214-.002zm2.653.183c.568.102.614.908 1.117 1.148v.058c-.285.143-.381 0-.574-.21l.21.391c-.233-.036-.284-.26-.423-.42l.213.452c-.347 0-.494-.059-.633-.394h-.032l.061.272-.214-.152.113-.39zM6.123 16.69c.224.066.35.22.362.454l-.694.481zm13.423.786l.454.662-.664-.3zm-10.89 1.356c.647.057.207.652-.058.935zm8.296.725l.273.843c-.223-.157-.487-.412-.603-.662zm-5.5.454l.343.06-.27.964h-.033l-.058-.755zm2.85.174c.062 0 .121.012.169.052.163.139-.068.806-.143.979l-.332-.965c.086-.023.2-.064.305-.066zM11.885 2.845l.03.03-.03-.03m-.03.091l.03.03zM15.475 3.057l.03.03zM13.574 3.117l.03.03zM15.445 3.177l.03.03zM13.544 3.207l.03.03zM8.567 3.449l.03.03zM13.393 3.449l.03.03-.03-.03m-.03.03l.03.03-.03-.03m.694.03l.03.03-.03-.03m-4.132.03l.03.03-.03-.03m4.192 0l.03.03-.03-.03m-5.46.03l.03.03-.03-.03m1.479 0l.03.03-.03-.03m4.042 0l.03.03zM10.226 3.66l.03.03-.03-.03m2.715 0l.03.03zM17.707 3.66l.03.03zM17.687 3.71l.01.02zM8.658 3.72l.03.03-.03-.03m6.183 0l.03.03zM9.985 3.84l.03.031zM17.646 3.84l.03.031zM8.808 4.112l.03.03-.03-.03m.151 0l.03.03-.03-.03m.03.06l.03.03z"/><path d="M13.454 4.293l-.483 2.172c.372-.226.45-1.052.483-1.448h.03c.064.348.096.696.237 1.026.056.13.118.304.276.302l-.387-1.358zM12.368 4.324l.03.03-.03-.03m-2.564.06l.03.03-.03-.03m-.15.12l.03.03-.03-.03m-.152.06l.03.031-.03-.03m3.861.09l.03.03zM10.498 4.685c.006.772.387 1.474.241 2.263.145-.089.149-.295.15-.453.005-.365-.059-.722-.06-1.086h.03c.106.365.39 1.09.815 1.147-.05-.196-.211-.345-.319-.513-.238-.375-.472-1.13-.857-1.358zM9.291 4.716l.03.03zM10.558 4.716l.03.03zM14.69 4.746l.03.03zM13.333 4.806l.03.03-.03-.03m1.478 0l.03.03zM17.375 4.806l.03.03zM14.78 4.836l.031.03-.03-.03m-.181.03l.03.03-.03-.03m.15 0l.03.03zM10.679 4.897l.03.03-.03-.03m1.99.03l.03.03zM17.556 4.927l.03.03zM14.6 4.987l.03.03zM16.681 5.017c-.335.527-.735 1.246-1.236 1.63v.03c.38-.069.79-.55.904-.906h.03c-.004.537-.25 1.106-.03 1.63h.03c.161-.544.078-1.184.216-1.75.043-.178.203-.474.086-.634zM8.899 5.078l.03.03zM10.8 5.108l.03.03-.03-.03m-1.66.06l.03.03-.03-.03m-.21.03l.03.03-.03-.03m.693 0l.03.03-.03-.03m4.012 0l.03.03-.03-.03m-.242.06l.03.03zM16.681 5.259l.03.03zM18.521 5.289l.03.03-.03-.03m-11.311.03l.03.03zM10.92 5.319l.03.03zM18.521 5.319l.03.03zM16.44 5.38l.03.03zM9.864 5.44l.03.03zM15.535 5.44l.03.03zM10.136 5.5l.03.03zM10.166 5.53l.03.03zM16.32 5.53l.03.03zM10.196 5.56l.03.03zM7.723 5.59l.03.03zM18.28 5.59l.03.03-.03-.03m-.03.03l.03.03-.03-.03M5.64 5.68l.03.031zM7.39 5.68l.03.031zM10.98 5.711l.03.03zM16.38 5.741l.03.03zM17.827 5.741l.03.03zM18.13 5.741l.03.03zM16.35 5.771l.03.03zM10.709 5.892l.03.03zM18.31 5.922l.03.03zM10.86 5.983l.03.03zM17.435 6.013l.03.03zM11.342 6.043l.03.03zM18.853 6.103l.03.03zM20.482 6.103l.03.03zM11.403 6.133l.03.03zM16.108 6.133l.03.03zM20.482 6.133l.03.03zM20.361 6.164l.03.03-.03-.03m.09 0l.03.03zM16.048 6.194l.03.03zM20.422 6.194l.03.03zM11.252 6.224l.03.03zM14.69 6.224c-.178.402-.265.775-.633 1.056v.06c.265.07.45-.263.513-.483h.03c.026.203.05.624.271.694l-.148-.694zM18.944 6.224l.03.03zM20.391 6.224l.03.03zM8.235 6.254c.066.742 1.063 1.243.935 2.051.16-.094.119-.268.065-.422-.112-.318-.298-.596-.427-.905.29.263.716.561 1.117.392l-.633-.262zM20.361 6.254l.03.03zM20.331 6.284l.03.03zM18.43 6.314l.03.03zM20.06 6.314l.03.03zM20.3 6.314l.031.03zM11.342 6.345l.03.03zM15.927 6.345l.03.03zM20.27 6.345l.03.03zM8.235 6.375l.03.03-.03-.03m7.662 0l.03.03zM20.24 6.375l.03.03zM8.447 6.405l.03.03zM20.21 6.405l.03.03zM6.757 6.435l.03.03zM15.837 6.435l.03.03-.03-.03m-.03.03l.03.03zM6.365 6.495l.03.03zM11.493 6.495l.03.03zM12.398 6.495c-.091.3-.347.887-.241 1.177h.06l.211-.724h.03c.075.273.153.687.483.724l-.483-1.177zM6.395 6.526l.03.03zM20.09 6.526l.03.03zM6.426 6.556l.03.03zM7.39 6.556l.03.03-.03-.03m8.145 0l.03.03zM6.456 6.586l.03.03zM6.999 6.586l.03.03zM14.54 6.586l.03.03-.03-.03m.18 0l.03.03zM15.505 6.586l.03.03zM6.486 6.616l.03.03zM15.475 6.616l.03.03-.03-.03m-6.727.06l.03.03zM16.259 6.676l.03.03zM8.447 6.767l.03.03-.03-.03m6.002.03l.03.03zM7.481 6.827l.03.03-.03-.03m-.754.03l.03.03zM8.96 6.857l.03.03-.03-.03m1.779 0l.03.03zM18.31 6.857l.03.03zM10.8 6.918l.03.03-.03-.03m1.628.03l.03.03-.03-.03m2.172 0l.03.03-.03-.03m-5.942.12l.03.03zM19.788 7.068l.03.03zM9.05 7.159l.03.03zM19.637 7.159l.03.03zM8.748 7.19l.03.03-.03-.03m5.58.03l.03.03zM10.377 7.25l.15 1.266h.061l-.03-.905c.197.137.463.475.724.362-.1-.109-.247-.128-.362-.221-.187-.152-.286-.482-.543-.503zM8.96 7.31l.03.03-.03-.03m5.097.03l.03.03-.03-.03m-5.188.03l.03.03-.03-.03m3.257 0l.03.03zM16.32 7.37l.03.03-.03-.03m.06 0l.03.03zM17.013 7.43c-.318.32-.584.539-1.026.664v.06c.262.075.514-.07.724-.21-.034.176-.26.64-.09.753l.29-.874zM10.648 7.46l.03.03-.03-.03m-3.438.03l.03.03-.03-.03m4.856 0l.03.03-.03-.03m2.805 0l.03.03zM16.923 7.49l.03.03zM5.159 7.551l.03.03zM12.85 7.551l.03.03zM6.787 7.581l.03.03zM19.818 7.581l.03.03zM8.99 7.611l.03.03-.03-.03m.12 0l.03.03-.03-.03m3.107 0l.03.03-.03-.03m-5.249.03l.03.03zM16.742 7.702l.03.03-.03-.03m.18.03l.03.03zM18.823 7.732l.03.03zM5.068 7.762l.03.03zM10.8 7.792l.03.03-.03-.03m-1.6.03l.03.03-.03-.03m1.81 0l.03.03zM5.159 7.853l.03.03zM16.53 7.853l.03.03zM10.92 7.883l.03.03-.03-.03m.332.03l.03.03zM16.651 7.943l.03.03zM11.07 7.973l.03.03-.03-.03m.061.03l.03.03-.03-.03m5.098 0l.03.03zM18.16 8.004l.03.03-.03-.03m-12.85.03l.03.03zM16.41 8.094l.03.03zM18.039 8.094l.03.03zM11.855 8.124l-.181.935c.151-.114.187-.48.211-.663l.272.301a1.058 1.058 0 0 0-.302-.573zM15.987 8.154l.03.03zM16.651 8.154l.03.03-.03-.03m2.081.03l.03.03zM14.811 8.215l-.573.573.543-.392.09.543c.106-.155.05-.579-.06-.724m-6.395.09v.03c.255.257.464.61.623.935.087.18.062.377.252.483-.015-.353-.166-.62-.302-.935.214.125.5.311.755.241V9c-.343-.152-.608-.282-.905-.519-.127-.1-.257-.231-.423-.175zM18.13 8.275l.03.03-.03-.03m-6.124.06l.03.03-.03-.03m-3.56.03l.03.03-.03-.03m3.59.03l.03.03zM18.913 8.396l.03.03zM11.946 8.426l.03.03zM17.707 8.426l.03.03zM19.215 8.426l.03.03zM5.52 8.456l.03.03z"/><path d="M14.54 8.456l.03.03-.03-.03m.24 0l.031.03-.03-.03m1.78 0l.03.03-.03-.03m-7.722.03l.03.03-.03-.03m3.016 0l.03.03zM20.12 8.486l.03.03zM17.858 8.516l.03.03zM14.57 8.547l.03.03zM6.395 8.577c.029.254.237.349.423.49.255.192.492.401.686.656.127.166.205.453.37.573-.036-.443-.298-.965-.725-1.146v-.03c.435.084.867.245 1.298.06v-.06l-.513-.02zM8.627 8.577l.03.03-.03-.03m5.732.03l.03.03-.03-.03m2.262 0l.03.03-.03-.03m-7.601.03l.03.03-.03-.03m5.308 0l.03.03zM19.366 8.637l.03.03zM17.496 8.667l.03.03zM12.157 8.697l.03.03zM13.122 8.697l-.272.513.302-.332.181.302zM16.59 8.697l.03.03zM20.422 8.697l.03.03zM8.718 8.728l.03.03-.03-.03m.422 0l.03.03zM19.185 8.728l.03.03zM5.46 8.758l.03.03z"/><path d="M13.031 8.788l.03.03-.03-.03m-3.74.03l.03.03-.03-.03m-.18.06l.03.03-.03-.03m5.79 0l.03.03-.03-.03m5.792 0l.03.03-.03-.03m-7.54.03l.03.03-.03-.03m7.57 0l.03.03-.03-.03m-13.362.03l.03.03-.03-.03m13.392 0l.03.03-.03-.03m-14.056.03l.03.031-.03-.03m6.576 0l.03.03zM5.4 9.03l.03.03zM6.787 9.03l.03.03zM17.526 9.03l.03.03zM11.704 9.06l.03.03-.03-.03m1.267.03l.03.03zM5.37 9.15l.03.03zM7.36 9.15l.03.03-.03-.03m1.78 0l.03.03-.03-.03m-.15.03l.03.03zM17.435 9.18l.03.03zM18.732 9.18l.03.03zM19.275 9.21l.03.03zM7.09 9.27l.03.03-.03-.03m1.96.03l.03.03zM21.085 9.361l.03.03zM16.018 9.421l-.513.392.452-.24-.06.361c.128-.09.176-.37.12-.513zM19.879 9.451l.03.03zM20.965 9.451l.03.03-.03-.03m.18 0l-.03.06zM19.336 9.482l.03.03zM21.145 9.482l.03.03zM5.52 9.512l.03.03zM15.837 9.512l.03.03zM4.706 9.542l.03.03zM17.677 9.542l.03.03-.03-.03m1.689 0l.03.03-.03-.03m-10.105.03l.03.03-.03-.03m6.666 0l.03.03zM4.887 9.602l.03.03zM15.686 9.602l.03.03zM19.396 9.602l.03.03zM4.525 9.632l.03.03zM7.662 9.663l.03.03-.03-.03m8.114 0l.03.03-.03-.03m1.509 0l.03.03zM19.426 9.663l.03.03-.03-.03m1.448 0l.03.03zM4.616 9.693l.03.03zM17.224 9.693l.03.03-.03-.03m-7.993.03l.03.03zM19.456 9.723l.03.03zM4.706 9.753l.03.03zM4.797 9.813l.03.03zM20.633 9.813l.03.03zM20.663 9.813l.03.03zM7.753 9.844l.03.03zM12.549 9.844c0 .153-.03.309.12.392v-.302l.362.12zM12.61 9.844l.03.03zM20.482 9.844l.06.06v-.06h-.06m.15 0l.03.03zM12.7 9.874l.03.03zM14.389 10.266l.15-.272.182.121c-.133-.355-.33-.1-.332.15zM19.245 9.904l.03.03-.03-.03m1.116 0l.03.03zM10.739 9.934c.053.195.137.361.302.483l-.181-.392.362.03c-.094-.17-.313-.12-.483-.12zM11.161 9.934l.03.03-.03-.03m1.508 0l.03.03zM5.008 9.964l.03.03zM14.63 9.964l.03.03zM12.79 9.994l.03.03zM9.2 10.115l.423.513-.241-.422.362-.06-.03-.121zM10.86 10.025l.03.03zM10.77 10.055l.03.03zM7.843 10.145l.03.03-.03-.03m1.358 0l.03.03zM19.225 10.196l.01.02-.01-.02m1.68-.02l.03.03zM7.783 10.206l.03.03-.03-.03m4.796 0l.03.03-.03-.03m-7.24.03l.03.03-.03-.03m5.52 0l.03.03zM5.37 10.266l.03.03zM20.824 10.346l.01.02zM20.844 10.326l.03.03zM5.46 10.356l.03.03zM17.797 10.387l.03.03zM6.154 10.96v.06l.875.302c-.018-.23-.314-.298-.513-.332l.603-.543c-.32-.038-.705.353-.965.513zM20.603 10.417v.03h.09zM5.55 10.447l.03.03zM19.456 10.447l.03.03-.03-.03m1.147 0l.03.03zM18.039 10.477l.03.03zM7.42 10.839v.06l.665.239.392.274c-.043-.32-.383-.374-.604-.543.28-.053.66-.057.785-.362zM17.465 10.537l.03.03zM18.19 10.537l.03.03zM6.727 10.568l.03.03-.03-.03m1.69.03l.03.03-.03-.03m.18 0l.03.03-.03-.03m12.398 0l.03.03-.03-.03m-15.293.03l.03.03zM20.995 10.628l.03.03zM6.576 10.658l.03.03-.03-.03m1.961 0l.03.03-.03-.03m10.859.03l.03.03-.03-.03m1.146 0l.03.03-.03-.03m-14.056.03l.03.03zM19.698 10.718l.03.03-.03-.03m-17.224.06l.03.03zM20.542 10.779l.03.03zM5.58 10.839l.031.03zM11.674 11.05l.09-.211c-.128.02-.229.12-.09.211zM6.275 10.87l.03.03zM2.655 10.9l.03.03zM18.37 10.9l.03.03zM7.934 10.93l.03.03zM20.572 10.93l.03.03zM5.671 10.96l.03.03zM18.46 10.96l.031.03zM19.275 10.96l.03.03zM1.117 10.99l.03.03zM2.776 10.99l.03.03zM4.947 10.99l.03.03zM20.814 10.99l.03.03zM8.145 11.02l.03.03zM12.76 11.02l-.03.211c.094-.055.11-.105.09-.211zM12.82 11.02l.03.03zM14.027 11.231l.09-.211c-.117.034-.214.118-.09.211zM19.245 11.02l.03.03zM20.784 11.02l.03.03zM7.994 11.08l.03.03zM18.944 11.08l.03.03zM19.547 11.08l.03.03zM20.723 11.08l.03.03-.03-.03m-.03.03l.03.03zM8.326 11.14l.03.03zM2.987 11.17l.03.031zM19.004 11.17l.03.031zM1.75 11.201l.03.03zM12.79 11.201l.03.03-.03-.03m1.176 0l.03.03zM14.932 11.412v.12l.301-.21zM8.356 11.352l.03.03-.03-.03m6.696 0l.03.03-.03-.03m.151 0l.03.03zM16.38 11.352v.362c.113-.111.113-.251 0-.362zM20.391 11.352l.03.03zM21.628 11.352l.03.03zM15.022 11.382l.03.03-.03-.03m.151 0l.03.03-.03-.03m1.176 0l.03.03zM19.366 11.382l.03.03zM20.24 11.412l.03.03zM14.992 11.503l.03.03-.03-.03m-4.313.03l.03.03zM10.437 11.955l.362.09-.2-.193.11-.29c-.146.076-.235.236-.272.393zM20.422 11.563l.03.03zM1.81 11.623l.03.03zM4.978 12.227c.039.225.262.104.422.093.23-.016.657.059.784.269l.211-.03c-.054-.342-.546-.341-.814-.363.197-.2.48-.259.543-.573zM21.417 11.623l.03.03zM3.5 11.653l.03.03zM21.779 11.684l.03.03zM2.685 11.714l.03.03zM10.528 11.714l.03.03-.03-.03m-4.645.03l.03.03-.03-.03m4.675.03l.03.03zM3.71 11.834l.03.03zM5.762 11.834l.03.03-.03-.03m.241 0l.03.03zM1.87 11.865l.03.03zM11.946 11.865l-.332.422.422.15-.302-.18c.063-.132.31-.246.212-.392zM21.326 11.865l.03.03zM4.495 11.895l.03.03zM5.671 11.895l.03.03-.03-.03m4.736 0l.03.03zM3.831 11.925l.03.03-.03-.03m.604 0l.03.03zM5.883 11.955l.03.03-.03-.03m3.408 0l.03.03zM9.321 11.955l-.362.332c.142.048.468.233.573.09l-.392-.15.181-.272m7.813 0l.422.332v.06l-.392.211a.939.939 0 0 0 .543-.21.883.883 0 0 0-.573-.393zM3.922 11.985l.03.03zM21.387 11.985l.03.03zM21.9 11.985l.03.03-.03-.03m-19.909.03l.03.03zM11.765 12.015l.03.03-.03-.03m.15 0l.03.03-.03-.03m5.4 0l.03.03zM19.939 12.015l.03.03-.03-.03m1.448 0l.03.03zM9.17 12.046l.03.03-.03-.03m.121 0l.03.03-.03-.03m2.443 0l.03.03zM2.052 12.076l.03.03zM7.451 12.076c-.182.41-.464.742-.784 1.055-.184.18-.47.346-.543.604l1.327-.282.694-.14c-.414-.295-1.14.033-1.538.21.274-.55.812-.768.935-1.417l-.03-.03z"/><path d="M9.26 12.076l.031.03-.03-.03m2.443 0l.03.03-.03-.03m5.55 0l.03.03-.03-.03m-11.613.03l.03.03zM12.971 12.377l.181.03v-.301c-.13.042-.146.148-.18.271zM5.219 12.136l.03.03zM17.345 12.136l.03.03-.03-.03m-9.954.03l.03.03zM2.142 12.196l.03.03zM5.702 12.196l.03.03-.03-.03m6.032.03l.03.03zM21.417 12.227l.03.03zM17.646 12.257l.03.03zM19.577 12.257l.03.03zM9.291 12.287l.03.03zM20.723 12.287l.03.03zM9.08 12.317l.03.03-.03-.03m3.891 0l.03.03zM14.389 12.317l.03.332a.503.503 0 0 0 .271-.332l-.21.15zM6.275 12.347l.03.03-.03-.03m8.084 0l.03.03-.03-.03m.24 0l.031.03zM17.677 12.347l.03.03zM20.784 12.347l.03.03zM2.263 12.377l.03.03zM9.26 12.377l.031.03-.03-.03m5.309 0l.03.03-.03-.03m2.805.03l.03.03zM19.607 12.468l.03.03zM21.357 12.468l.03.03zM22.05 12.498l.03.03zM21.326 12.558l.03.03zM7.36 12.589l.03.03zM3.077 12.619l.03.03zM20.331 12.649l.03.03zM19.426 12.679l.03.03zM20.3 12.679l.031.03-.03-.03m-.905.03l.03.03zM10.136 12.95l.06-.21c-.13.037-.2.13-.06.21zM2.474 12.77l.03.03zM10.045 12.77l.03.03-.03-.03m-3.077.03l.03.03zM20.06 12.8l.03.03zM6.938 12.83l.03.03zM21.176 12.83l.03.03-.03-.03m-1.267.03l.03.03zM21.145 12.86l.03.03zM15.535 12.92l-.03.423-.272-.181c.029.183.157.27.332.301l.03-.543zM19.637 12.92v.03h.09zM8.085 13.855c.2-.008.894.019.995-.12l-.664-.09.362-.694c-.22.068-.596.692-.693.904m2.443 2.625c.227-.13.524-.52.633-.754-.241.072-.347.309-.513.482l-.09-.633c.705-.062 1.015-.833 1.43-1.296.253-.282.57-.404.893-.574-.19-.228-.455.013-.634.15-.479.369-.755.816-1.176 1.237l.241-.633h-.03c-.131.314-.288.65-.603.814l.12-.422h-.03c-.127.303-.27.452-.603.452l.301-.693h-.03l-.392.663-.12-.03.301-.573h-.03c-.153.244-.313.591-.633.513l.271-.513c-.151.118-.217.401-.395.471-.081.032-.235-.027-.202-.135.042-.14.273-.277.363-.396.31-.406.56-1.067 1.018-1.317.376-.204.947.055 1.358.05.235-.003.503-.084.573-.332-.192-.02-.373.103-.573.103-.507.001-1.34-.251-1.775.093-.396.313-.419.733-.668 1.13-.122.195-.337.326-.513.466-.065.052-.183.128-.159.227.03.122.239.188.34.234.228.105.477.186.724.237.131.027.327.023.44.104.204.148.135.652.163.875zM20.965 13.041l.03.03-.03-.03m-.513.03l.03.03-.03-.03m.422 0l.03.03zM4.887 13.101l-.03.181.12-.18zM12.006 13.101l.03.03zM20.572 13.101l.03.03zM15.595 13.131l.03.03zM2.715 13.162l.03.03zM10.226 13.162l.03.03zM5.55 13.192l.03.03zM6.576 13.192l.03.03-.03-.03m2.082 0l.03.03zM4.947 13.222l.03.03zM5.702 13.222l.03.03-.03-.03m.844 0l.03.03-.03-.03m4.163 0l.03.03-.03-.03m-4.193.03l.03.03zM4.917 13.282l.03.03zM8.477 13.282l.03.03-.03-.03m1.629 0l.03.03zM12.247 13.282l.03.03zM20.874 13.282l.03.03zM17.586 13.554l.09-.211c-.123.036-.187.105-.09.21zM8.416 13.373l.03.03zM20.391 13.373l.03.03zM10.407 13.403l.03.03zM19.245 13.403l.03.03zM22.08 13.403l.03.03zM7.451 13.433l.03.03zM10.377 13.433l.03.03-.03-.03m-5.49.03l.03.03-.03-.03m.12 0l.031.03-.03-.03m5.339 0l.03.03zM8.447 13.493l.03.03-.03-.03m1.447 0l.03.03zM5.4 13.524l.03.03zM18.551 13.524l.03.03zM20.542 13.524l.03.03zM5.37 13.584l.03.03zM10.256 13.584l.03.03zM13.514 13.584l.332.362.15-.362-.15.241-.332-.241m3.047 0l-.03.452-.302-.18c-.017.198.288.424.452.512l-.06-.784zM8.205 13.644l.03.03-.03-.03m.513 0l.03.03-.03-.03m-.543.03l.03.03zM18.46 13.674l.031.03zM3.53 13.735l.03.03zM5.43 13.765l.03.03zM8.085 13.765l.03.03zM12.338 13.765l.03.03zM18.4 13.765l.03.03-.03-.03m.212.03l.03.03zM13.695 13.825l.03.03-.03-.03m9.26 0l.03.03-.03-.03m-13.242.03l.03.03zM18.34 13.855l.03.03zM3.258 13.886l.03.03-.03-.03m8.929 0l.03.03zM12.428 13.886l.03.03zM3.168 13.916l.03.03zM13.755 13.916l.03.03-.03-.03m2.594 0l.03.03zM18.491 13.976l.03.03zM12.217 14.036l.03.03zM3.168 14.067l.03.03zM19.426 14.067l.03.03-.03-.03m-12.88.03l.03.03zM8.386 14.097c-.094.452-.417.858-.707 1.206-.138.166-.35.333-.409.543.5-.144 1.062-.652 1.599-.603-.138-.268-.782.104-1.026.15.196-.29.463-.542.59-.874.052-.14.086-.327-.047-.422zM9.925 14.097l.03.03zM11.885 14.097l.03.03zM3.53 14.127l.03.03-.03-.03m.12 0l.03.03zM8.356 14.157l.03.03zM18.099 14.157l.03.03zM19.456 14.187l.03.03-.03-.03m1.75.03l.03.03zM23.197 14.217l.03.03zM11.976 14.248l.03.03zM5.55 14.278l.03.03zM3.41 14.308l.03.03zM11.674 14.308l.03.03zM3.379 14.338l.03.03zM16.59 14.338l.03.03zM15.113 14.82c-.128-.127-.258-.302-.453-.27l.573.693.151-.875c-.23.037-.218.265-.271.453zM22.835 14.368l.03.03zM5.189 14.398l.03.03-.03-.03m.633 0l.03.03z"/><path d="M12.277 14.67l-.03-.151h-.09l.03.392c.175-.03.358-.346.392-.513zM21.176 14.398l.03.03zM6.335 14.429l.03.03-.03-.03m5.249 0l.03.03-.03-.03m.24 0l.031.03-.03-.03m3.56 0l.03.03zM18.16 14.429l.03.03zM23.528 14.459l.03.03zM9.382 14.489l.03.03zM22.11 14.489l.03.03zM6.576 14.519l.03.03-.03-.03m1.63 0l.03.03zM10.478 14.54l.01.02zM18.039 14.55l.03.03zM21.387 14.55l.03.03-.03-.03m.935 0l.03.03zM8.386 14.58l.03.03-.03-.03m2.051 0l.03.03-.03-.03m-2.292.06l.03.03-.03-.03m12.94 0l.03.03zM21.357 14.64l.03.03zM22.985 14.64l.03.03zM3.952 14.67l.03.03zM9.17 14.67l.03.03zM17.797 14.67l.03.03zM3.892 14.7l.03.03-.03-.03m.06 0l.03.03zM10.166 14.7l.03.03zM11.403 14.7l.03.03-.03-.03m9.652 0l.03.03-.03-.03m-5.942.06l.03.03-.03-.03m4.585 0l.03.03zM4.465 14.79l.03.03zM11.312 14.82l.03.03-.03-.03m3.921 0l.03.03zM6.365 14.85l.03.031zM9.653 14.85l.03.031zM10.045 14.85l.03.031zM10.317 14.85l.03.031zM11.523 14.85l.03.031zM21.477 14.85l.03.031zM8.899 14.881l.03.03-.03-.03m1.84 0l.03.03zM13.393 14.881l-.15.392h-.03l-.242-.332.211.694h.03c.08-.201.365-.572.181-.754zM14.962 14.881l.03.03zM10.287 14.911l.03.03zM19.366 14.911l.03.03zM9.23 14.941l.03.03zM13.333 14.941l.03.03zM5.46 14.972l.03.03zM10.196 14.972l.03.03zM10.739 14.972l.03.03-.03-.03m.271 0l.03.03zM3.68 15.002l.03.03zM11.07 15.002l.03.03-.03-.03m8.809 0l.03.03-.03-.03m-12.006.03l.03.03-.03-.03m12.036 0l.03.03zM3.59 15.062l.03.03zM9.593 15.062l.03.03zM9.985 15.062l.03.03zM11.07 15.062l.03.03zM16.651 15.092l.181.996c-.192-.168-.785-.942-1.026-.664.555.177.787.825 1.267 1.116l-.15-.573-.181-.905zM19.939 15.062l.03.03zM20.512 15.092l.03.03zM21.266 15.092l.03.03zM3.5 15.122l.03.03zM4.284 15.122l.03.03zM7.994 15.122l.03.03zM9.472 15.122l.03.03-.03-.03m.09 0l.03.03zM10.106 15.122l.03.03zM20.09 15.122l.03.03zM21.236 15.122l.03.03zM7.783 15.152l.03.03zM9.412 15.152l.03.03-.03-.03m.422 0l.03.03zM5.852 15.183l.03.03zM10.77 15.213l.03.03zM4.193 15.243l.03.03zM10.015 15.243l.03.03zM10.709 15.243l.03.03zM8.235 15.273l.03.03zM19.758 15.273l.03.03zM9.321 15.303l.03.03zM18.25 15.303c-.153.374.22.776.362 1.116-.392-.202-.74-.539-1.207-.543v.121c.672.059 1.03.746 1.569 1.056-.005-.562-.488-1.209-.664-1.75zM19.155 15.303l.03.03zM8.054 15.333l.03.03zM19.879 15.333l.03.03zM21.025 15.333l.03.03zM11.04 15.364l.03.03zM20.995 15.364l.03.03zM6.365 15.394l.03.03-.03-.03m10.316 0l.03.03zM20.965 15.394l.03.03zM6.335 15.424l.03.03zM9.683 15.424l.03.03-.03-.03m1.267 0l.03.03zM19.336 15.424l.03.03zM6.305 15.454l.03.03-.03-.03m-.03.03l.03.03zM13.243 15.484l.03.03zM6.245 15.514l.03.03zM7.481 15.514l.03.03zM16.832 15.545l.03.03zM18.22 15.635l.03.03zM6.124 15.665l.03.03zM7.632 15.665l.03.03-.03-.03m-.06.03l.03.03zM12.126 15.756l-.21.03c.07.17.196.306.255.483.065.195.023.466.227.573.094-.212.327-.558.271-.785-.17.085-.252.268-.271.453h-.03zM6.033 15.786l.03.03zM9.321 15.786c0 .592-.08 1.149-.241 1.72.21.007.32-.211.433-.363.225-.299.45-.628.804-.784v-.03c-.359-.046-.806.49-.935.784h-.03c.106-.41.2-.924.03-1.327zM11.131 15.786l.03.03zM19.818 15.786l.03.03zM20.542 15.786l.03.03zM14.45 16.45l-.695-.483c.039.123.137.16.228.245.18.167.338.557.587.6l.06-.996c-.243.093-.18.42-.18.634zM18.31 15.816l.03.03zM20.512 15.816l.03.03zM12.157 15.846l.03.03zM16.772 15.876l.03.03zM11.976 15.907l.03.03zM16.44 15.907l.03.03-.03-.03m.211.03l.03.03zM16.681 15.967l.03.03zM10.92 15.997l.03.03-.03-.03m2.956 0l.03.03zM17.948 16.027l.03.03zM6.094 16.057l.03.03zM12.67 16.057l.03.03-.03-.03m-1.84.06l.03.03zM16.62 16.118l.031.03zM18.612 16.118l.03.03zM20.06 16.118l.03.03zM20.21 16.118l.03.03zM6.154 16.148l.03.03zM20.18 16.148l.03.03zM13.966 16.178l.03.03zM18.22 16.178l.03.03zM20.15 16.178l.03.03zM7.632 16.238l.03.03-.03-.03m4.525 0l.03.03-.03-.03m1.93.06l.03.03zM7.602 16.36l.03.03zM14.359 16.39l.03.03zM16.168 16.39c-.212.376.098 1.153.151 1.568h-.03c-.168-.355-.492-.649-.754-.935-.037-.04-.228-.301-.296-.192-.072.115.278.385.343.463.241.286.459.609.641.935.106.189.198.441.398.543-.151-.778-.39-1.586-.392-2.383zM18.22 16.39l.03.03zM9.985 16.42l.03.03zM10.136 16.42l.03.03-.03-.03m2.202 0l.03.03zM16.923 16.42l.03.03zM16.108 16.45l.03.03zM20.03 16.45l.03.03zM10.528 16.48l.03.03zM12.368 16.48l.03.03zM19.336 16.51l.03.03-.03-.03m.392 0l.03.03zM9.985 16.54l.03.03-.03-.03m4.283 0l.03.03zM18.37 16.54l.03.03zM7.542 16.57l.03.03zM19.486 16.6l.03.03zM9.26 16.63l.031.03zM6.546 16.66l.03.03zM14.359 16.66l.03.03-.03-.03m1.75 0l.03.03zM20.03 16.66l.03.03zM9.804 16.721l.03.03-.03-.03m4.615.03l.03.03zM7.42 16.872l.031.03zM18.732 16.872l.03.03zM15.414 16.902l.03.03zM8.808 16.932l.03.03zM11.131 16.932l-.03.03c.148.406.293.742.364 1.177.034.202.013.465.179.603.17-.322.23-.695.385-1.026.09-.19.234-.356.188-.573-.29.143-.461.787-.543 1.086-.15-.399-.104-1.091-.543-1.297zM15.294 16.993l.03.03-.03-.03m.03.03l.03.03zM9.351 17.053l.03.03zM15.354 17.053l.03.03zM6.968 17.083l.03.03zM7.602 17.083l.03.03zM9.351 17.083l.03.03zM15.384 17.083l.03.03zM19.486 17.083l.03.03zM9.502 17.113l.03.03-.03-.03m2.624.03l.03.03zM16.168 17.143l.03.03zM12.217 17.173l.03.03zM15.656 17.173l.03.03zM15.686 17.204l.03.03zM7.15 17.234l.03.03-.03-.03m2.262 0l.03.03zM13.182 17.234c.341.677.594 1.314.784 2.051.213-.12.184-.33.182-.543-.006-.496.185-.99.15-1.478-.142.049-.168.195-.192.332-.06.329-.06.669-.14.995-.163-.38-.293-1.279-.784-1.357zM13.273 17.234l.03.03zM18.099 17.234l.03.03zM11.252 17.264l.03.03zM15.565 17.264l.03.03-.03-.03m-8.023.03l.03.03zM9.834 17.294l.03.03zM14.178 17.294l.03.03zM19.336 17.294l.03.03zM6.124 17.324l.03.03zM14.147 17.354l.03.03-.03-.03m-6.123.06l.03.031zM11.976 17.415l.03.03-.03-.03m.18 0l.03.03zM15.686 17.415l.03.03-.03-.03m-7.692.03l.03.03zM18.19 17.445l.03.03zM19.215 17.445l.03.03zM7.964 17.475l.03.03zM12.126 17.475l.03.03zM13.484 17.475l.03.03zM15.957 17.505l.03.03zM12.096 17.535l.03.03zM13.363 17.566l.03.03zM5.822 17.596l.03.03zM8.235 17.596l.03.03zM5.762 17.626l.03.03zM11.885 17.626l.03.03zM13.393 17.626l.03.03zM19.064 17.626l.03.03z"/><path d="M13.424 17.686l.03.03-.03-.03m.18 0l.03.03-.03-.03m-.15.06l.03.03-.03-.03m.18 0l.03.03-.03-.03m-1.81.03l.031.03-.03-.03m.15 0l.03.03zM17.224 17.777l.03.03zM13.665 17.807l.03.03zM19.366 17.837l.03.03zM7.602 17.867l.03.03zM11.01 17.897l.03.03zM16.018 17.897l.03.03zM11.765 17.928l.03.03zM17.435 17.928l.03.03zM8.115 17.958l.03.03zM11.07 17.958l.03.03zM17.556 18.018l.03.03-.03-.03m-1.93.03l.03.03-.03-.03m.06 0l.03.03zM7.42 18.078l.031.03zM11.704 18.078l.03.03zM16.138 18.078l.03.03-.03-.03m-7.661.121l.03.03zM12.247 18.2l.03.03-.03-.03m-4.947.03l.03.03zM16.5 18.23l.03.03zM13.846 18.26l.03.03-.03-.03m-5.249.03l.03.03zM16.259 18.29l.03.03zM14.419 18.32l.03.03zM8.658 18.35l.03.03zM17.978 18.38l.03.03zM7.18 18.41l.03.03zM11.493 18.41l.03.03zM13.333 18.41l.03.03zM18.008 18.41l.03.03zM9.774 18.44l.03.03-.03-.03m4.132.03l.03.03-.03-.03m-5.037.03l.03.03-.03-.03m5.912 0l.03.03-.03-.03m-5.822.061l.03.03-.03-.03m5.64.03l.031.03-.03-.03m-4.072.03l.03.03-.03-.03m4.343 0l.03.03-.03-.03m-4.373.06l.03.03-.03-.03m-1.237.03l.03.031-.03-.03m.392 0l.03.03-.03-.03m5.279 0l.03.03-.03-.03m-5.58.03l.03.03-.03-.03m3.167.03l.03.03zM10.648 18.833l.03.03zM17.435 18.953l.03.03zM18.642 18.953l.03.03zM14.178 18.983l.03.03zM17.315 19.014l.03.03zM12.64 19.074l.03.03-.03-.03m1.266 0l.03.03zM17.104 19.104l.03.03zM14.087 19.195l.03.03zM14.962 19.195l.03.03zM16.923 19.195l.03.03zM10.588 19.225l.03.03-.03-.03m3.469 0l.03.03zM16.862 19.225l.03.03zM13.363 19.285l.03.03zM14.992 19.285l.03.03-.03-.03m.241 0l.03.03zM8.839 19.345l.03.03zM11.04 19.375l.03.03-.03-.03m1.72.06l.03.031zM16.35 19.436l.03.03-.03-.03m-.091.03l.03.03zM18.913 19.496l.03.03-.03-.03m.06 0l.03.03zM16.048 19.526l.03.03zM15.354 19.587l.03.03-.03-.03m-5.248.06l.03.03zM11.976 19.647l.03.03zM16.681 19.677l.03.03zM12.247 19.707l.03.03zM16.742 19.918l.03.03-.03-.03m.03.03l.03.03zM16.802 19.979l.03.03-.03-.03m.302.12l.03.03zM14.057 20.22l.03.03zM17.013 20.22l.03.03-.03-.03m-1.418.12l.03.03zM17.164 20.37l.03.031-.03-.03m-3.137.03l.03.03-.03-.03m3.167 0l.06.06zM17.224 20.401l.03.03zM15.746 20.461l.03.03zM11.644 20.492l.03.03zM19.342 10.173a.325.325 0 1 1-.65 0 .325.325 0 0 1 .65 0z"/></svg>
