<svg width="100" height="30" xmlns="http://www.w3.org/2000/svg"><path d="M2.505 1.505v5.45h4.92v16.23h4.86V6.955h4.92v-5.45zm20.16 4.94c-1.36 0-2.35.33-2.97.99-.62.66-.93 1.64-.93 2.95v12.81h4.92v-10.95c0-.57.28-.86.85-.86h3.62v-4.94zm19.9 0l-3.39 10.01-3.39-10.01h-5.29l6.11 15.69-2.49 6.36h5.29l8.48-22.05zm16.59 4.68v-4.51h-3.85v-4.82h-4.89v17.71c0 2.46 1.35 3.68 4.04 3.68h4.67v-4.93h-3.08c-.49 0-.74-.32-.74-.97v-6.16zm15.16-4.68h-7.29c-2.59 0-3.88 1.31-3.88 3.94v9.01c0 2.53 1.32 3.79 3.96 3.79h7.26c2.52 0 3.78-1.3 3.78-3.91v-8.87c.01-2.64-1.27-3.96-3.83-3.96zm1.95 7.91c-.74.2-1.35 1.4-1.73 2.12-.39.72-1.1 2.4-2.15 2.81-1.04.41-2.67-.13-3.47-.44-.8-.3-2.4-.47-3.56-1.02-1.15-.55-.38-1.71.28-1.32.66.39.55.88 1.6 1.02s1.32-.11 1.38-.55c.06-.44-.03-1.32-.28-1.79s-1.27-2.87-1.68-3.56c-.41-.69-1.4-2.01-.52-2.23.89-.22 1.21.8 1.19 1.46-.03.66.58 1.66 1.13 2.7a3.08 3.08 0 0 0 1.51 1.4c.61.17.69-.41.8-.63.11-.22.5-2.78.14-3.94-.36-1.16.3-1.65.94-1.16.64.49.58 1.21.28 1.38-.3.17-.25 2.26-.25 2.26s-.17 2.59.6 2.95c.77.36 2.26-1.19 2.75-2.18.5-.99.77-.58.99-.58.22.01.8 1.11.05 1.3zm17.38-7.91h-7.15c-2.59 0-3.88 1.31-3.88 3.94v12.81h4.89v-10.92c0-.57.29-.86.85-.86h3.45c.57 0 .85.29.85.86v10.92h4.84v-12.78c-.01-2.65-1.29-3.97-3.85-3.97z" fill="#202628"/></svg>