<svg xmlns="http://www.w3.org/2000/svg" width="1415.195" height="440.171"><g stroke="#000" stroke-width="1.984" stroke-miterlimit="10"><path fill="none" d="M36.474 304.669V171.921M36.474 410.022v-95.238"/><path d="M38.768 304.669h5.917c3.244 0 12.025 1.146 12.025 1.146l-8.398 8.971H29.22l-8.398-8.971s8.781-1.146 12.025-1.146H38.768z"/><path fill="none" d="M47.153 314.772s1.35 22.154 3.448 45.06c2.1 22.906 6.489 50.202 6.489 50.202H20.44s4.39-27.296 6.488-50.202c2.1-22.905 3.448-45.06 3.448-45.06M41.058 304.669V171.921M41.058 410.022v-95.238M38.841 158.061v-18.36"/><path fill="none" d="M20.44 410.034l29.586-55.641-19.649-39.621"/><path fill="none" d="M57.091 410.034l-29.586-55.641 19.648-39.621M25.593 375.581h26.313M27.505 354.393h22.521M29.196 331.648h18.969M30.938 292.93h15.653M30.938 271.17h15.653M31.606 251.7h14.317M31.989 235.093h13.457M32.466 218.104h12.407M32.848 202.833h11.739M32.848 189.281h11.739M33.679 171.239l-3.122 133.477"/><path d="M43.712 165.278l-.297-7.218h-9.299l-.298 7.218h-4.551s1.933 4.867 4.224 5.869c.062.027.125.051.188.075v.017h.042c2.252.895 4.995.715 4.995.715h.099s2.744.18 4.996-.715h.042v-.017c.062-.024.126-.048.188-.075 2.291-1.002 4.224-5.869 4.224-5.869h-4.553z"/><path fill="none" d="M46.975 304.716l-3.122-133.477"/></g><path d="M1395.851 345.464v-49.67h-3.895c0-.019.003-.036.003-.056 0-7.369-5.974-13.344-13.344-13.344s-13.344 5.975-13.344 13.344c0 .02.003.037.003.056h-3.896v49.67h-24.094v-46.529h-6.435c0-.058.004-.116.004-.175 0-18.355-13.827-33.573-31.932-36.411v-14.52h-3.994V235.41h-4.22v12.419h-3.994v14.52c-18.104 2.838-31.933 18.056-31.933 36.411 0 .059.005.117.005.175h-6.436v46.529h-24.094v-49.67h-3.895c0-.019.003-.036.003-.056 0-7.369-5.974-13.344-13.344-13.344s-13.344 5.975-13.344 13.344c0 .02.003.037.003.056h-3.896v49.67h-6.673v50.652h-11.028l-2.837-4.912-2.837 4.912h-53.2v-7.861l2.959-1.279v-8.809l-2.959-1.281v-16.859h-2.983l-4.246-18.5-4.244 18.5h-2.982v16.859l-2.961 1.281v8.809l2.961 1.279v7.861h-60.657v-7.861l2.959-1.279v-8.809l-2.959-1.281v-16.859h-2.983l-4.244-18.5-4.245 18.5h-2.984v16.859l-2.959 1.281v8.809l2.959 1.279v7.861h-53.2l-2.837-4.912-2.837 4.912h-10.27V356.21h-45.04l-3.984-156.616h1.693v-6.708h-1.861l-.166-6.48c8.139-2.871 13.981-10.607 13.981-19.729 0-8.574-5.162-15.936-12.542-19.172v-26.877h-3.111L899.451 4.414h-2.534l-4.016 116.214h-3.111v26.877c-7.381 3.236-12.542 10.598-12.542 19.172 0 9.121 5.843 16.857 13.982 19.729l-.166 6.48h-1.862v6.708h1.692l-3.983 156.616h-34.685v-17.949h-3.183v-15.117h-1.591v-65.396h-12.164l-5.022-17.214-5.021 17.214h-12.163v65.396h-1.591v15.117h-3.183v17.949H744.44v-75.319l-12.604-3.521-5.959.394v-5.979a1.964 1.964 0 0 0 0-3.839v-5.494h-.834v5.494a1.964 1.964 0 0 0 0 3.839v6.033l-10.071.664-5.561 6.115v45.821l-5.635-6.946v-50.179l-4.309-3.475-.278-4.17-3.197.834-.417-4.31-1.251-.139-.277-5.421-1.529-2.363-5.56-.417-2.085-1.112-.835-4.309-4.864-1.946c-2.085-.834-2.919 2.363-2.919 2.363l-5.421 31.275v45.592l-3.893 8.757v3.892l-4.726 17.375v-23.352l-6.255-34.75-5.978 34.75-.208 25.698-1.46 2.102v59.84h-14.985v-39.626l3.351-9.51h-3.664l1.256-8.493h-33.494v-1.675h-5.096c.072-.528-.012-1.079-.137-1.518-.209-.732.785-1.622.941-1.203.158.419-.313 1.569.209 1.727.523.156.42-2.041.523-2.931.104-.89.105-1.728-.209-2.46s.732-2.669.732-3.35c0-.68-.68-1.15-1.518-.471-.837.68-1.15 1.728-1.256 2.408-.055.354-.113.855-.355 1.406l-3.871-.488c-.163-.6-.231-1.176-.012-1.809.471-1.36-.156-2.406-.838-2.355-.681.053-1.1.734-1.309 1.256-.209.524-.575.996-.837.682-.263-.314-.104-.838.052-1.466.157-.628.157-1.046-.156-1.099-.173-.029-.484-.072-.732-.107v-2.104a1.513 1.513 0 0 0 1.099-1.452 1.51 1.51 0 0 0-1.06-1.439c.293-.38.949-1.298 1.111-2.066.209-.995.105-1.518.105-1.518s-.629.418-.891.785c-.213.299-.598 1.079-.732 1.357-.135-.278-.519-1.058-.732-1.357-.262-.366-.891-.785-.891-.785s-.104.523.105 1.518c.162.768.818 1.686 1.111 2.066a1.512 1.512 0 0 0-1.06 1.439c0 .693.466 1.27 1.099 1.452v2.104c-.248.035-.56.078-.732.107-.313.053-.313.471-.156 1.099.156.628.314 1.151.053 1.466-.263.314-.629-.157-.838-.682-.209-.521-.628-1.203-1.309-1.256-.681-.051-1.309.995-.838 2.355.22.633.151 1.209-.011 1.809l-3.872.488c-.242-.551-.301-1.052-.355-1.406-.105-.681-.419-1.729-1.256-2.408-.838-.68-1.518-.209-1.518.471 0 .681 1.047 2.617.732 3.35s-.313 1.57-.209 2.46c.104.89 0 3.087.523 2.931.522-.157.052-1.308.209-1.727.156-.419 1.15.471.941 1.203-.125.438-.209.989-.137 1.518h-5.096v1.675H538.81l1.256 8.493h-3.663l3.35 9.51v39.626H526.48V353.66h-.768c.188-.932.924-2.031 1.27-2.594.67-1.088 0-2.844-.418-3.848s-.334-1.088-.084-1.924c.252-.836-.752-1.255-1.422-.251-.669 1.004-.669 3.429-.669 4.35s-.669 1.505-2.007 2.175c-.75.375-.948 1.326-.979 2.092h-2.73v-27.604l-2.326-3.262h-14.904v-27.102h-1.172v27.102h-14.904l-2.328 3.262v27.604h-12.533l-2.01-5.727-2.012 5.727H456.19l-2.01-5.727-2.012 5.727H441.87l-2.01-5.727-2.012 5.727H427.55l-2.01-5.727-2.012 5.727h-12.143v-12.799h-2.064v-15.893h-2.007v-2.342h-1.171v-3.178h-1.506v3.178h-1.17v2.342h-2.008v15.893h-1.952c0-15.602-10.735-28.693-25.22-32.301v-2.078h-15.811v2.078c-14.484 3.608-25.219 16.699-25.219 32.301h-1.952v-15.893H329.3v-2.342h-1.172v-3.178h-1.505v3.178h-1.171v2.342h-2.008v15.893h-2.063v12.799h-12.144l-2.011-5.727-2.011 5.727h-10.299l-2.011-5.727-2.011 5.727h-10.299l-2.011-5.727-2.011 5.727h-10.299l-2.011-5.727-2.011 5.727h-12.533v-27.604l-2.327-3.262H232.49v-27.102h-1.171v27.102h-14.905l-2.327 3.262v27.604h-2.73c-.029-.766-.229-1.717-.978-2.092-1.339-.67-2.007-1.254-2.007-2.175s0-3.346-.67-4.35c-.669-1.004-1.673-.585-1.422.251.25.836.334.92-.083 1.924-.419 1.004-1.088 2.76-.419 3.848.346.562 1.082 1.662 1.271 2.594h-.769v51.481h-6.619l-1.79-4.726h-1.853v-14.644h1.019v-4.632l-9.914-1.917v-4.292l-2.271-1.301v-68.014l1.182-3.962v-4.518h-2.71v-4.239s-.262-1.266-2.676-1.635v-1.632l1.459-1.216s.938.034 1.737-.278c.8-.312 1.355-.557.974-1.182-.383-.626-2.502-4.761-2.502-4.761s.694-.348.834-.312c.139.034 0-.521-.209-1.043-.208-.521-1.182-2.433-1.216-2.71-.035-.278-.66-1.494 1.042-2.78 1.703-1.286 2.294-2.537 2.676-3.231.383-.695 2.189-2.676 3.267-3.579 1.077-.904.348-1.355-.834-.765s-4.935 3.648-5.769 4.691c-.834 1.042-1.563 1.771-1.563 1.771s.348-1.528.104-1.98c-.46-.853-.929-.923-1.151-.898-.223-.024-.691.046-1.151.898-.243.452.104 1.98.104 1.98s-.168-.169-.431-.454l-.422-11.951h-.603l.337 11.172a21.392 21.392 0 0 1-.445-.538c-.834-1.043-4.587-4.101-5.769-4.691s-1.911-.14-.834.765c1.077.903 2.884 2.884 3.267 3.579.382.694.973 1.945 2.676 3.231 1.702 1.286 1.077 2.502 1.042 2.78-.034.277-1.008 2.188-1.216 2.71-.209.521-.348 1.077-.209 1.043.14-.035.834.312.834.312s-2.119 4.135-2.502 4.761c-.382.625.174.869.974 1.182.799.312 1.737.278 1.737.278l1.459 1.216v1.632c-2.414.369-2.676 1.635-2.676 1.635v4.239h-2.71v4.518l1.182 3.962v68.014l-2.271 1.301v4.292l-9.914 1.917v4.632h1.019v14.644h-1.853l-1.79 4.726h-8.682v2.547h-18.338l.934-10.197s3.676-3.032 5.053-4.319c1.378-1.285 4.87-5.144 7.442-8.36 2.571-3.214 1.929-4.685 1.011-6.154s-2.756-1.286-7.902-.552c-5.145.736-13.228 3.033-13.228 3.033-9.739 2.48-15.343 5.695-22.969 7.165-7.624 1.47-19.753 2.204-28.204 1.839-8.453-.369-12.863-2.299-14.424-3.125-1.562-.826-4.777-2.389-8.084-2.939-3.309-.552-2.481 2.939-1.471 5.236 1.01 2.297 10.014 13.506 10.014 13.506v4.868H4.09v15.985h642.698v6.132s1.807 1.529 8.896 2.502 21.962-2.919 21.962-2.919l18.226-5.715h13.541v7.753l5.561 5.746 16.864 1.482 12.604-5.375v-9.606h210.057v-5.762c3.751 1.516 6.028 3.497 6.028 5.668h13.649c0-4.766 10.952-8.627 24.463-8.627s24.465 3.861 24.465 8.627h22.443v-12.604h45.76v12.604h22.444c0-4.766 10.953-8.627 24.464-8.627 13.512 0 24.464 3.861 24.464 8.627h13.648c0-2.313 2.586-4.412 6.787-5.961v6.055h219.411v-78.211h-6.674zM168.997 400.417h-3.614v-14.644h3.614v14.644zm24.611 0h-3.613v-14.644h3.613v14.644zm150.186 7.573h-1.562v-41.22h-8.787v41.22h-1.562v-42.782h11.912v42.782zm14.272 0h-1.562v-41.22h-8.788v41.22h-1.562v-42.782h11.911v42.782zm14.273 0h-1.562v-41.22h-8.787v41.22h-1.562v-42.782h11.912v42.782zm14.271 0h-1.561v-41.22h-8.787v41.22H374.7v-42.782h11.91v42.782zm14.274 0h-1.562v-41.22h-8.787v41.22h-1.562v-42.782h11.912v42.782zm-77.882-49.899l43.35-18.856.032.072.031-.072 43.35 18.856h-86.763zm507.265-81.806h.002a4.216 4.216 0 0 1 0 8.433h-.002a4.217 4.217 0 0 1 0-8.433zM627.574 380.382v39.626h-10.938v-39.626h10.938zm-16.693 0v39.626h-10.938v-39.626h10.938zm-16.731-25.289a4.479 4.479 0 0 1-.802.797c-1.055.82-.798 3.505-.599 4.814h-1.59c.179-1.137.482-3.416.252-4.605-.105-.541-.268-1.021-.42-1.475l3.159.469zm-12.052-.469c-.152.454-.314.934-.42 1.475-.23 1.189.073 3.469.252 4.605h-1.59c.199-1.31.456-3.994-.599-4.814a4.479 4.479 0 0 1-.802-.797l3.159-.469zm12.088 25.758v39.626h-15.281v-39.626h15.281zm-21.04 0v39.626H562.21v-39.626h10.936zm-27.63 0h10.938v39.626h-10.938v-39.626zm410.01 28.164h-1.029v-5.964a2.08 2.08 0 0 1 1.029 1.788v4.176zm7.087 0h-4.178v-4.176a2.09 2.09 0 0 1 4.178 0v4.176zm7.087 0h-4.178v-4.176a2.09 2.09 0 0 1 4.178 0v4.176zm7.087 0h-4.177v-4.176a2.089 2.089 0 0 1 4.177 0v4.176zm7.086 0h-4.176v-4.176a2.089 2.089 0 0 1 4.176 0v4.176zm7.088 0h-4.177v-4.176a2.088 2.088 0 0 1 4.177 0v4.176zm7.088 0h-4.179v-4.176a2.091 2.091 0 0 1 2.089-2.086 2.09 2.09 0 0 1 2.09 2.086v4.176zm7.086 0h-4.178v-4.176a2.09 2.09 0 0 1 4.178 0v4.176zm7.088 0h-4.177v-4.176a2.088 2.088 0 0 1 4.177 0v4.176zm7.086 0h-4.177v-4.176a2.088 2.088 0 1 1 4.177 0v4.176zm22.395-2.32v-6.975h18.198c-6.774 2.225-12.243 6.395-14.356 8.158v-1.184h-3.842zm6.125 1.718c3.647-2.812 11.904-8.316 20.597-8.316s16.949 5.504 20.598 8.316h-41.195zm47.318-1.718h-3.842v1.184c-2.113-1.764-7.581-5.934-14.355-8.158h18.197v6.974zm26.573 2.32h-4.178v-4.176a2.09 2.09 0 0 1 4.178 0v4.176zm7.087 0h-4.178v-4.176a2.09 2.09 0 0 1 4.178 0v4.176zm7.088 0h-4.178v-4.176a2.09 2.09 0 0 1 4.178 0v4.176zm7.085 0h-4.177v-4.176a2.09 2.09 0 0 1 4.177 0v4.176zm7.088 0h-4.177v-4.176a2.088 2.088 0 0 1 4.177 0v4.176zm7.086 0h-4.177v-4.176a2.09 2.09 0 0 1 4.177 0v4.176zm7.087 0h-4.177v-4.176a2.088 2.088 0 0 1 4.177 0v4.176zm7.089 0h-4.178v-4.176a2.09 2.09 0 0 1 4.178 0v4.176zm7.086 0h-4.178v-4.176a2.09 2.09 0 0 1 4.178 0v4.176zm2.909 0v-4.176a2.084 2.084 0 0 1 1.788-2.056v6.231h-1.788z"/><path d="M330.513 356.527h71.74l-35.869-15.602z"/></svg>