<?xml version="1.0" encoding="UTF-8" standalone="no"?>
<!-- Generator: Adobe Illustrator 20.0.0, SVG Export Plug-In . SVG Version: 6.00 Build 0)  -->

<svg
   xmlns:dc="http://purl.org/dc/elements/1.1/"
   xmlns:cc="http://creativecommons.org/ns#"
   xmlns:rdf="http://www.w3.org/1999/02/22-rdf-syntax-ns#"
   xmlns:svg="http://www.w3.org/2000/svg"
   xmlns="http://www.w3.org/2000/svg"
   xmlns:sodipodi="http://sodipodi.sourceforge.net/DTD/sodipodi-0.dtd"
   xmlns:inkscape="http://www.inkscape.org/namespaces/inkscape"
   version="1.1"
   x="0px"
   y="0px"
   viewBox="0 0 3535.3223 1102.7068"
   xml:space="preserve"
   id="svg18"
   sodipodi:docname="banner-tum2019.svg"
   inkscape:export-filename="/home/ccr/Images/marseille/tryton_mrs.png"
   inkscape:export-xdpi="150"
   inkscape:export-ydpi="150"
   inkscape:version="0.92.2 2405546, 2018-03-11"
   width="3535.3223"
   height="1102.7068"><metadata
   id="metadata24"><rdf:RDF><cc:Work
       rdf:about=""><dc:format>image/svg+xml</dc:format><dc:type
         rdf:resource="http://purl.org/dc/dcmitype/StillImage" /><dc:title></dc:title></cc:Work></rdf:RDF></metadata><defs
   id="defs22"><linearGradient
     id="linearGradient5571"><stop
       style="stop-color:#ffffff;stop-opacity:0;"
       offset="0"
       id="stop5573" /><stop
       style="stop-color:#ededed;stop-opacity:1;"
       offset="1"
       id="stop5575" /></linearGradient></defs><sodipodi:namedview
   pagecolor="#ffffff"
   bordercolor="#666666"
   borderopacity="1"
   objecttolerance="10"
   gridtolerance="10"
   guidetolerance="10"
   inkscape:pageopacity="0"
   inkscape:pageshadow="2"
   inkscape:window-width="1918"
   inkscape:window-height="1059"
   id="namedview20"
   showgrid="false"
   inkscape:zoom="0.2503115"
   inkscape:cx="809.36042"
   inkscape:cy="140.32153"
   inkscape:window-x="0"
   inkscape:window-y="19"
   inkscape:window-maximized="0"
   inkscape:current-layer="svg18"
   showguides="true"
   inkscape:guide-bbox="true"
   fit-margin-top="0"
   fit-margin-left="0"
   fit-margin-right="0"
   fit-margin-bottom="0" /><style
   type="text/css"
   id="style2">
	.st0{fill:#E5E5E5;}
	.st1{fill:#CCCCCC;}
	.st2{fill:none;}
</style><g
   id="paris"
   transform="translate(-27.435547,-303.60666)" /><path
   style="fill:#030303;fill-opacity:1"
   d="m 1928.961,2.0007648 v 0.002 c 0,2.6e-4 0,0.002 0,0.002 z m 0,0.004 v 0.002 c -0.3382,-0.0632 -0.6812,0.45001 -1.4922,0.88672 -1.3,0.7 -0.5996,1.30039 -1.0996,2.90039 -0.5,1.6 -0.5008,0.9 -1.3008,2 -0.8,1.1 0.1,1.09922 0,2.6992202 -0.1,1.6 -0.294,2.90039 -0.1,5.40039 0.2,2.5 -0.294,2.89922 -0.1,4.69922 0.2,1.7 -0.9016,1.70078 -1.6016,3.30078 -0.7,1.5 -0.6992,1.79961 -2.6992,3.09961 -2,1.4 -1.5992,2.3 -2.6992,4.5 -1.1,2.2 -0.7008,1.30078 -1.8008,3.80078 -1.1,2.4 -1.1004,1.29922 -0.9004,4.19922 0.2,2.9 -0.3011,6.50039 -0.1015,9.40039 0.2,2.9 0.8992,0.89961 2.1992,3.09961 1.4,2.3 4e-4,3.39961 0.9004,5.59961 0.9,2.3 0.4011,2.10078 1.7011,4.30078 1.3,2.2 -0.4011,2.90078 -0.2011,5.80078 0.2,2.9 0.2,2 0,6 -0.2,4.1 0,2.69922 0,7.19922 -0.1,4.5 -0.8996,3.60078 -1.0996,7.80078 -0.1,4.3 -0.5008,3.09844 -0.1016,7.39844 0,0 0.1,9.401555 -0.1016,12.101555 -0.3,2.6 -0.7015,1.49922 -1.6015,4.19922 -0.9,2.6 -2.2989,8.90039 -2.2989,8.90039 0,0 -1.0996,2.49922 -1.0996,4.69922 0,2.3 1.0996,4.5 1.0996,4.5 -0.1,18.1 -10.9564,25.64363 -11.4004,25.90039 -0.444,0.25676 -1.595,0.35469 -1.7949,0.55469 v 1.35351 c 1.2172,0.81148 0,1.35352 0,1.35352 v 2.83789 l 1.6016,1.09961 -0.2012,42 -4.2988,12.90039 c 0,0 -2.9004,0.90117 -2.9004,2.70117 0,1.8 2.9004,2.5 2.9004,2.5 v 5.59961 l -20.8008,7.69922 1.5,2.70117 -0.1016,9.79883 h -8 v -2.69936 -3.40039 c 0,0 -1.3,-1.39922 -2,-2.69922 -0.7,-1.3 0.4993,-3.60078 0.6993,-5.80078 0.3,-2.2 -0.1,-6.00078 1,-9.80078 1.1,-3.8 0,-4.29883 0,-4.29883 l -2,-3.40039 c 0,0 -3.8004,2.2 -4.9004,1.5 -1.1,-0.7 0.7,-1.5 0,-4 -0.7,-2.4 -1.0989,-1.8 -1.2989,-2 -0.1,-0.2 -2.5,2.69922 -2.5,2.69922 0,0 -0.9003,1.30039 -2.9003,2.40039 -2,1.1 -3.3008,-3.59961 -3.3008,-3.59961 h -4 c -0.7,0 0,1.49922 0,2.19922 0,0.7 1.5015,1.10039 2.6015,1.90039 1.4,0.9 0.6993,1.39961 0.6993,3.59961 0,2.2 1.0992,2.40156 2.1992,3.10156 1.2,0.6 4.3008,-0.2 6.3008,0 2,0.2 -0.6997,1.99961 -1.5997,3.09961 -0.9,1.1 -2.7003,0.50039 -4.9003,0.90039 -2.3,0.4 3e-4,-0.002 -1.5997,2.39844 -1.5,2.4 0,3.80039 0,4.90039 v 3.40039 c 0,1.1 2.2004,2.7 2.9004,4 0.7,1.3 0.1993,4 0.1993,4 0,0 -3.8008,-0.20078 -3.8008,2.69922 0,2.9 4,3.60039 4,9.40039 0,3.9 -7.4664,8.32812 -10.0664,10.82812 l 12.7675,13.37305 -0.1015,9.79883 2,4.90039 -0.4004,70.19922 -3.7012,1.90039 3.7031,4.80078 -0.2011,35 -2,2 2,0.69922 -0.1016,17.90039 -1.9004,0.19922 0.1016,0.40039 -136.8008,20.80078 v -13.20117 l -2.6992,-2.39844 0.1015,-26.20117 3.0997,-7.69922 0.1015,-13.40039 -2.6992,-10.09961 v -8.40039 h -5.4035 c 0,0 0.1992,-41.59961 -41.3008,-57.59961 0,0 1.3008,-2.70117 -3.6992,-2.70117 0,0 -1.3008,-5.69922 -4.3008,-5.69922 0,0 0.1016,-12.80078 -1.8984,-16.80078 l 0.1,-17.79883 h 4.4004 v -1.59961 h -4.4004 v -4.90039 h -0.8008 -0.7988 v 4.90039 h -4.4004 v 1.59961 h 4.4004 l -0.1016,17.79883 c -2,4.1 -2.0996,16.80078 -2.0996,16.80078 -3,0 -4.4004,5.69922 -4.4004,5.69922 -5,0 -3.6992,2.70117 -3.6992,2.70117 -41.7,15.5 -41.9004,57.09961 -41.9004,57.09961 h -5.4004 l -0.1,10.69922 -3,10.70117 -0.1,10.40039 3,7.69922 -0.1992,26.30078 -2.7012,2.29883 v 12.77344 l -10.998,-0.0723 h -4.1993 l -35.5996,31 -9.1015,-0.10156 9,7.80078 v 37.5 h -5.3985 l -0.2011,9.5 h 5.4004 l -0.1993,40.90039 -4.7011,-0.70117 v -6.39844 h -4.4004 v 6.39844 l -4.0996,6 -0.1012,18.40042 -20.5,3.90039 v -4 h -6.6992 l -0.1016,11.69922 -27.5996,9.20117 v 4 l 2,4 -0.1,27.19922 -1.8008,2.40039 -28,1.80078 v -4.40039 l -12.3984,-0.0996 v 6 l -38.6016,4.09961 v -8.70117 l -17.7988,-0.0996 -0.1016,11.09961 -12.1015,1.60156 -1.5,13 -1.3965,0.19922 -0.1406,5.67188 v 0.008 l -79.2598,9.1211 c -0.2086,2.1463 -0.4574,4.6912 -0.7012,7.1992 l -2.3594,71.8594 c -0.3425,-0.123 -0.7068,-0.2351 -1.039,-0.3633 l -7,-1 c 0,0 -4.0008,0.4004 -6.3008,0.4004 -2.2,0 -1.7992,-1.1996 -2.6992,-3.0996 -0.9,-2 3.1,-1.2 4.5,-1.5 1.3,-0.4 7.1992,0 7.1992,0 0,0 1.3004,-1.2016 -0.1016,-3.1016 -1.4,-2 0.5,-2.2996 0,-3.0996 -0.5,-0.8 -6.5996,2.3008 -6.5996,2.3008 0,0 -0.9015,-1.9008 1.3985,-5.8008 0.8,-1.4 -2.1989,-0.8 -6.2989,-2 0,0 2.6996,-3.1004 4.0996,-4.9004 1.4,-1.8 3.0993,1.4 5.6993,0 2.6,-1.4 2.4,-2.9 0,-6 -1.2,-1.5 -1.6989,1.2008 -4.7989,2.3008 -3.1,1.2 -3.6011,0.3992 -6.7011,0.6992 -3.1,0.4 0.5004,-2.2984 0.9004,-3.8984 0.5,-1.6 3.1011,0 6.7011,-1.5 3.6,-1.5 2.6996,-0.4004 3.5996,-3.9004 0.9,-3.5 -4e-4,-1.9004 -4.4004,-7.4004 -1.9,-2.3 -1.2996,-2.3004 -3.0996,-5.9004 -1.8,-3.5 -4.9011,-5.4988 -6.7011,-6.2988 -1.8,-0.8 -6.3,0.6984 -12.5,-0.1016 -6.3,-0.8 -1e-4,8e-4 -13.3985,3.8008 0,0 -8e-4,-3.5 -10.3008,-5.5 -2,-0.4 -2.2,0.7992 -9,8.6992 -2.1,2.5 -4.0003,1.3016 -4.9003,0.6016 -0.9,-0.8 -2.6989,-0.8 -5.7989,0 -3.1,0.8 -0.5,3.5 -0.5,3.5 0,0 0,4.2988 3.5,6.2988 0,0 0.4,4.2012 0,6.2012 -0.5,1.9 -1.8,0.3984 -4,0.3984 -2.2,0 -5.4015,-0.3984 -7.1015,-2.3984 -1.8,-1.9 -4.3985,-0.8 -4.8985,-3.5 0.2,1.2 0.5985,3.7 0.8985,5 0.4,2.3 0.4015,2.6988 2.6015,7.7988 0,0 0.9,3.9 -0.5,7 -1.4,3.1 10e-5,-4e-4 -2.2011,3.0996 -0.8,1 0,3.5 0,3.5 l 2.2011,4.3008 c 0,0 4.4985,2.4 4.8985,5.5 0,0 -2.2,1.5 -4,1.5 -1.8,0 -1.7985,0.4 -4.8985,-2 -3.1,-2.3 -3.6015,-2 -3.6015,-2 0,0 -2.1993,0.4996 -2.6993,3.5996 -0.5,3.1 0.4008,3.5 -2.6992,8.5 -1.1,1.7 -2.2015,0.4008 -3.1015,-2.6992 -0.9,-3.1 -2.7,-2.7012 -3.5,-4.7012 -0.9,-1.9 -1.8,-1.9984 -4.5,-3.8984 -2.7,-2 -3.0985,0 -5.3985,0 h -6.4004 c 0,0 -15.7996,8.2996 -20.5996,11.5996 -7.7,5.3 -21.6,17.8988 -26.5,25.2988 -6.6,9.8 -12.4015,32.3012 -16.1015,43.2012 -5,14.7 -13.8,45.6004 -25,57.4004 -10.4,10.9 -41.6985,22.2992 -53.8985,31.6992 -8.4821,6.5247 -23.29965,21.2829 -36.08005,34.4805 H 0 v 22.86126 h 1026.0098 1512.8731 v 0 h 996.4394 V 980.87204 H 2579.502 l -39.3457,-49.0859 -5.5,-20.9004 -3.2988,-21.9004 -19.7012,-16.0996 c 0,0 1.9996,0.8992 3.5996,-18.8008 1.5,-19.7 -8.5,-4.8984 -8.5,-4.8984 0,0 -9.7992,-8.7004 -12.6992,-12.4004 -2.8,-3.7 -1.4008,6.0988 -2.8008,-3.7012 -1.4,-9.8 1.5008,-11.0992 -2.6992,-19.6992 -4.4,-8.6 -4.9008,-19.8008 -4.3008,-21.3008 0.7,-1.5 -0.5996,-4.9984 -1.5996,-6.3984 -1,-1.5 -3.4004,1.3984 -3.4004,1.3984 0,0 -0.6996,-3.5 -1.5996,-5.5 -1,-2.1 -2.0004,0.3012 -3.4004,-0.2988 -1.3,-0.6 -3.7,0 -8,-5 -4.3,-5 -3.9992,-8e-4 -5.6992,-0.3008 -1.7,-0.3 -4.6992,0 -4.6992,0 0,0 -2.3,-2.2992 -2,-3.1992 0.3,-0.9 -4,-2.4004 -4,-2.4004 0,0 -3.3012,-2.1 -5.7012,-1.5 -2.4,0.6 -7.7004,3.4992 -7.4004,1.6992 0.3,-1.7 0.7,-2.2984 2,-4.3984 1.4,-2 0.3,-1.7016 -2,-5.6016 -2.3,-3.8 8e-4,0 -0.6992,-2.2988 -0.7,-2.3 -1.3,-1.8004 -4,-0.9004 -2.7,0.9 -3.7,0.2992 -6,-0.3008 -2.3,-0.6 1.3,-1.5 0,-3.5 -1.3,-2 -2.6992,4e-4 -8.6992,1.4004 -6,1.4 -1.7012,0.3008 -3.7012,0.3008 -2,0 -4e-4,4e-4 -4.4004,-0.5996 -4.4,-0.6 0,-1.8016 0,-4.1016 0,-2.3 -2.6992,4e-4 -4.6992,-0.5996 -2,-0.6 -1.3008,-1.9988 -2.3008,-3.7988 -1,-1.8 -2.9992,-1.2 -4.6992,-1.5 -1.7,-0.3 -4.4004,2.2988 -4.4004,2.2988 0,0 -0.6992,4.1012 -3.6992,5.2012 0,0 -2.3008,-1.5004 -4.3008,-2.4004 -2,-0.9 -0.6992,1.6992 -1.6992,3.1992 -1,1.5 -2.3012,-0.8988 -3.7012,-1.7988 -1.3,-0.9 -3.6992,2 -3.6992,2 0,0 -2.3992,0.8992 -3.6992,-0.3008 -1.3,-1.2 -3.0012,0.2996 -5.7012,1.0996 -2.7,0.9 0,2.9 0,5.5 0,2.6 0.7,1.8008 0,3.8008 -0.4,1.3 -1.3996,3.3992 -2.0996,4.6992 l 0.1016,0.1016 c -0.1,0 -0.099,0.1015 -0.1993,0.1015 -0.3,0.7 -0.5996,1.1992 -0.5996,1.1992 0,0 -0.3008,0 -0.8008,0.1016 -0.7,0.7 -1.1,1.1988 -1.5,1.7988 -0.6,0.8 -3.9953,4.8055 -5.6953,6.6055 0.3,-3.1 -7.6004,-27.6 -12.9004,-37 -5.3,-9.4 -19.9,-33.2996 -23.5,-48.0996 -3.6,-14.8 -10.9004,-80.59961 -10.9004,-80.59961 l -63.1035,-0.40039 -45.5,33.90039 c 0,0 -12.4004,-1.80117 -21.4004,-2.70117 -0.7,-0.1 -6.5,-0.60352 -7,-0.60352 -7,0 -22.5,5.59961 -22.5,5.59961 l -28.9863,-0.19726 v -0.0312 l -0.3594,0.0293 h -0.055 v 0.004 l -38.7989,3.19531 -34.1601,-1.09765 0.059,-9.70117 -30.8985,-4.30079 c -3.5211,-3.65869 -4.8008,-7.00078 -4.8008,-7.30078 0,-1 -1.3,-1.69845 -2,-3.39843 -0.7,-1.70002 -1.7007,-0.70118 -3.3007,-0.70118 -1.5,-0.1 -1.4993,0.60078 -2.1993,2.30078 -0.7,1.7 -4.6992,1 -4.6992,1 l 0.1,-18.30078 -2,-2.69922 0.2989,-47.80078 2.2011,-3.19922 -2.7011,-2.5 0.3007,-48.0996 2,-2.30079 -2.1992,-1.5 0.1992,-31.40039 1.9004,-2.69922 -2.2011,-1.5 0.3007,-49.5996 1.5,-3.20118 -1.1992,-1.69922 0.1992,-34 0.1016,-0.0996 -0.041,-0.006 2.8418,-5.09571 -3.4004,-2 0.4004,-73.59961 1,-3.5 v -8.19922 l 11.4707,-13.79296 c -1.2,-1.8 -5.7703,-3.70821 -6.0703,-4.40821 -0.5,-1.2 -0.5,-1.69922 -1,-3.19922 -0.5,-1.5 -0.7012,-0.99922 -1.2012,-2.19921 -0.5,-1.20002 0.3,-1.20118 0.5,-2.20118 0.1,-1 0.7,-1.99922 1,-2.69922 0.3,-0.6 1.5012,-0.60078 1.7012,-2.30078 0.1,-1.7 0,0 -0.2012,-1.5 -0.2,-1.5 -0.5,-1 -1,-3 -0.4,-2 0,0.001 -1.7988,0.20118 -1.8,0.2 -8e-4,-7.9e-4 -0.8008,-0.80079 -0.9,-0.8 0.2,-1.2 0.5,-2.5 0.4,-1.3 1.4004,-0.5 2.4004,-1.5 1,-1 0.1992,-1 0.1992,-2.5 0,-1.5 0,7.8e-4 0.7012,-1.19921 0.7,-1.10001 0.5984,-1.00079 0.8984,-2.30079 0.4,-1.4 0.4012,-1.90039 0.2012,-3.90039 -0.2,-2 -0.2012,-1.7 -1.2012,-3 -1,-1.3 8e-4,0.001 -1.1992,-0.29882 -1.2,-0.3 -0.8992,-0.20002 -1.6992,-0.5 -0.8,-0.3 -1,-0.20002 -2.5,-0.5 -1.5,-0.3 0.4992,-1.8 2.1992,-3.5 0.6,-0.60001 3.5,-1.20118 3.5,-1.20118 0,0 0.2004,-0.99922 0.4004,-2.69922 0.2,-1.7 0.5,-1.2 1,-2.5 0.6,-1.3 4e-4,-7.8e-4 2.4004,-2.30078 2.3,-2.3 0.7,-0.69922 0,-3.19922 -0.6,-2.5 0,0 -1,0 -1,0 -3.2012,0.69922 -3.2012,0.69922 l -2.4004,1.5 c 0,0 -1.8992,-0.2 -2.6992,-1 -0.9,-0.9 -0.6992,-1.19922 -1.1992,-2.19922 -0.5,-1 -1.6008,0.2 -2.3008,0 -0.6,-0.2 -1.2,1.7 -1.5,2.5 -0.3,0.8 0,1.79883 0,1.79883 l -1.1992,0.20117 -2.3008,-1.5 c -2.3,-1.5 -2,1.19922 -2,1.19922 0,0 -0.7,2.20118 -1,3.70118 -0.4,1.5 -0.4004,5.39843 -0.4004,5.39843 0,0 0.3996,2.40039 0.5996,3.90039 0.2,1.5 0.5016,1.3 1.1016,3 0.6,1.6 0.1984,3.3 -0.1016,5 -0.3,1.7 0.3,2.5 0,3.5 -0.3,1 -0.9992,2.00078 -1.6992,2.80078 -0.6,0.9 -1.5,4.4004 -1.5,4.4004 l -13.8008,-0.10157 v -6.5 l -10.3984,-0.0996 v 4.70118 l -2.9004,-0.5 0.1015,-24 c 0,0 2.9004,-0.6004 2.9004,-2.4004 0,-1.8 -2.9004,-2.70117 -2.9004,-2.70117 l -4.0996,-13 0.1993,-42 c 0,0 1.3504,-0.98496 1.6757,-1.19726 0.01,-0.13584 0,-2.02895 0,-2.75196 0,0 -1.5005,-0.65187 0.025,-1.27929 0.012,-1.25486 0.041,-1.25958 0.02,-1.47852 0,-10e-4 -1.1583,-0.4308 -1.4258,-0.5918 -0.2678,-0.16122 -11.1996,-7.9 -11.0996,-26 v -0.0996 c 0,-1.60001 1.0996,-2.30001 1.0996,-4.5 0,-2.30001 -9e-4,-2.50157 -1.3008,-3.60157 -1.3001,-1.1 -4e-4,10e-4 -0.4004,-1.79883 -0.5,-1.7 0.2012,-1.70117 0.2012,-4.20117 0,-2.5 0,-1.79883 -0.2012,-3.79883 -0.2,-2 0.2,-1.7 0,-6 -0.2,-4.2 0,-3.10117 0,-4.20117 0,-1.2 2,2.20117 2,2.20117 0,0 1.8016,1.59961 3.6016,1.59961 0.7,0.1 0.8992,-1.49922 0.6992,-4.19921 -0.2,-2.600005 0.2,-2.001565 0,-5.101565 -0.2,-3.1 -5e-4,-3.09961 -0.4004,-5.59961 -0.5,-2.4 0,-1.29922 0,-4.19922 0,-2.9 0.4004,-0.90078 0.9004,-3.80078 0.5,-2.9 0.7,-1.5 0.5,-4 -0.2,-2.5 -0.3996,-2.49961 -0.5996,-3.59961 -0.2,-1.1 0,-1.09961 -0.2012,-3.59961 -0.2,-2.5 0,-3.60117 -0.3984,-6.70117 -0.4,-3.1 -10e-5,10e-4 -2.2012,-3.79883 -0.3001,-0.4 -0.2988,-0.49962 -0.2988,-0.5996 -0.8,-1.60001 -0.2997,-0.80157 0.1015,-0.10157 0.3,-0.1 0.9996,-0.29883 2.0996,-1.79883 1.3,-0.9 -4e-4,0 1.0997,-2.5 1.0998,-2.5 7e-4,-1.80078 -0.1993,-3.80078 -0.2,-2.1 -0.2011,-4.29883 -0.2011,-4.29882 0,0 -0.2989,-1.20118 -1.7989,-5.20118 -0.5,-1.3 -0.4,-1.09922 0.5,-2.19922 0.9,-1.1 10e-5,-3.9e-4 1.7989,-0.90039 1.8,-0.9 1.6003,-3.9e-4 2.9004,-0.90039 1.3999,-0.9 1.1,0.40078 2.5,-4.69922 1.3999,-5.2 0.2003,-1.6 0.9003,-4.5 0.7,-2.9 8e-4,-7.8e-4 -0.1992,-1.80078 -0.2,-1.8 10e-5,0 -1.1015,-0.5 -1.1,-0.4 -1.1,0.49961 -2,1.59961 -0.9,1.1 0,1.80117 -2.5,4.20117 -1.3,1.3 -0.6989,0.69883 -2.2989,-0.20117 -1.5,-0.9 -8e-4,0 0.6993,-2 0.6999,-2 -4e-4,10e-4 1.0996,-1.79883 1.1,-1.8 3e-4,-1.30078 -1.0996,-3.80078 -1.1001,-2.5 0.6999,-1.1 0,-2 -0.6001,-0.9 -1.2989,-0.90039 -3.2989,-0.90039 -2,0 -1.1015,0 -3.1015,-0.5 -2,-0.5 -1.6,0.8 -2.5,1.5 -0.9,0.7 -0.7,1.30039 -1.5,2.90039 -0.8,1.6 -1,0.50039 -3,0.90039 -2,0.5 7e-4,7.7e-4 -0.1993,-2.19921 -0.2,-2.2 -7e-4,-2 0.6993,-4 0.7,-2 4e-4,-7.9e-4 0.9004,-1.80079 0.8999,-1.8 0.9003,-1.09961 1.4003,-3.59961 0.4,-2.4 0.4,-1.1 0,-4 -0.4,-2.9000002 -0.2007,-0.89961 -1.3007,-3.5996002 -1.2,-2.60001 2e-4,-10e-4 -1.5996,-2.20118 -1.6001,-2.2 -1.4,0.49961 -2.5,1.59961 -1.1001,1.2 -1.3993,0.50078 -2.6993,-0.19922 -1.3,-0.7 10e-5,0 -0.2011,-2 -0.2,-2 -0.1997,-0.9 -1.0996,-2.5 -0.2968,-0.59305 -0.4963,-0.84116 -0.6973,-0.88476 z m 18.4043,58.4882802 0.2988,0.59961 c 0.4,0.4 0.1012,-0.0996 -0.2988,-0.59961 z M 1195.9141,749.09264 c 0,0.05 0.05,0.4004 0.1504,0.9004 -0.1,-0.7 -0.1504,-0.9504 -0.1504,-0.9004 z"
   id="path7"
   inkscape:connector-curvature="0"
   sodipodi:nodetypes="cccccccsssccccscscccsscccccccscscccccccsccccccccscsccscccscsscscssccssscsscccccccccccccccccccccccccccccccccccccccccccccccccccccccccccccccccccccccccccccccccccccccccccccsccccscccssccccssccscccccscccsccccsccccsccscsccsccccccccccccccccccccccsccccccsscscsccccssssssssssccssccscsccccccccssccccsccccccccccsccscccccccccccccccccccccccccscccccccccssccsscccccscccsccsscsccccccscssccccccccscccccccccssccsccscccscssssccccccccccscccsscsccccccsssscssccscccsccccccscs" /><g
   id="g13"
   transform="translate(-27.435547,-303.60666)"><path
     class="st2"
     d="m 2511.7,1093.7 c 0.7,-1.5 -0.6,-5 -1.6,-6.4 -1,-1.5 -3.4,1.4 -3.4,1.4 0,0 -0.7,-3.5 -1.6,-5.5 -1,-2.1 -2,0.3 -3.4,-0.3 -1.3,-0.6 -3.7,0 -8,-5 -4.3,-5 -4,0 -5.7,-0.3 -1.7,-0.3 -4.7,0 -4.7,0 0,0 -2.3,-2.3 -2,-3.2 0.3,-0.9 -4,-2.4 -4,-2.4 0,0 -3.3,-2.1 -5.7,-1.5 -2.4,0.6 -7.7,3.5 -7.4,1.7 0.3,-1.7 0.7,-2.3 2,-4.4 1.4,-2 0.3,-1.7 -2,-5.6 -2.3,-3.8 0,0 -0.7,-2.3 -0.7,-2.3 -1.3,-1.8 -4,-0.9 -2.7,0.9 -3.7,0.3 -6,-0.3 -2.3,-0.6 1.3,-1.5 0,-3.5 -1.3,-2 -2.7,0 -8.7,1.4 -6,1.4 -1.7,0.3 -3.7,0.3 -2,0 0,0 -4.4,-0.6 -4.4,-0.6 0,-1.8 0,-4.1 0,-2.3 -2.7,0 -4.7,-0.6 -2,-0.6 -1.3,-2 -2.3,-3.8 -1,-1.8 -3,-1.2 -4.7,-1.5 -1.7,-0.3 -4.4,2.3 -4.4,2.3 0,0 -0.7,4.1 -3.7,5.2 0,0 -2.3,-1.5 -4.3,-2.4 -2,-0.9 -0.7,1.7 -1.7,3.2 -1,1.5 -2.3,-0.9 -3.7,-1.8 -1.3,-0.9 -3.7,2 -3.7,2 0,0 -2.4,0.9 -3.7,-0.3 -1.3,-1.2 -3,0.3 -5.7,1.1 -2.7,0.9 0,2.9 0,5.5 0,2.6 0.7,1.8 0,3.8 -0.4,1.3 -1.4,3.4 -2.1,4.7 l 0.1,0.1 c -0.1,0 -0.1,0.1 -0.2,0.1 -0.3,0.7 -0.6,1.2 -0.6,1.2 0,0 -0.3,0 -0.8,0.1 -0.7,0.7 -1.1,1.2 -1.5,1.8 -0.6,0.8 -1.3,1.8 -3,3.6 -1.3,1.4 -1.1,1.8 0.2,4.1 0.7,1.2 1.5,2.6 2,4.4 0.6,2.1 1.2,2.4 3.2,3.4 1.2,0.6 2.7,1.4 4.5,2.8 4.6,3.6 3.2,8 2.3,10.9 -0.3,0.9 -0.5,1.7 -0.6,2.4 -0.2,1.5 -1.1,2.7 -2.6,3.3 -4.5,2 -12.5,-2 -12.6,-2 -0.6,-0.3 -1.2,-0.6 -1.8,-0.8 -2.3,-1 -4.8,-2 -7.2,-6 -0.8,-1.3 -1.2,-1.5 -1.2,-1.5 -0.1,0 -0.3,0 -0.5,-0.1 -1.3,-0.1 -2.7,-0.4 -4.4,-1.7 -1.1,-0.8 -1.9,-1.5 -2.8,-2.2 -1.6,-1.3 -3.1,-2.6 -5.9,-4.3 -1.5,-0.9 -2.4,-1.1 -3.4,-1.2 -2,-0.3 -3.6,-0.7 -6,-3.1 -1,-1 -1.7,-1.7 -2.3,-2.4 -1.6,-1.7 -2.5,-2.7 -6.2,-5.1 -4.8,-3.1 -4.4,-5.9 -4.1,-8.4 0.1,-1.1 0.3,-2.2 0,-3.7 -0.1,-0.6 -0.2,-0.9 -0.3,-1 -0.2,0 -0.4,0 -0.6,0 -1.3,0 -3.6,-0.1 -5.3,-2.2 -0.9,-1.1 -1.6,-2.1 -2.3,-3.2 -1.2,-1.7 -2.3,-3.4 -4.1,-5.2 -0.6,-0.6 -1.1,-1.1 -1.5,-1.5 -1.6,-1.7 -2,-2.1 -6.1,-4.8 -4.3,-2.8 -4,-5 -2.2,-7.5 0.6,-0.9 1.2,-1.6 1.2,-3 0,-2.5 -3.6,-5.7 -6.3,-8.1 -1.7,-1.5 -3.1,-2.8 -4,-4 -1.4,-2 -2,-2.5 -3.3,-3.8 -0.6,-0.6 -1.3,-1.2 -2.2,-2.2 -1.7,-1.7 -2.8,-3.3 -4.1,-5.1 -1.2,-1.7 -2.5,-3.5 -4.4,-5.5 -2.5,-2.7 -4.4,-3.3 -6.3,-3.6 0.2,1 0.7,2.2 1.1,2.6 2.2,1.5 2.4,3.8 2.5,6.2 0,0.7 0.1,1.5 0.2,2.4 0.5,3.9 -1.7,9.4 -2,10 -0.3,0.7 -2,4.2 -5.1,5.2 -1,0.4 -2.9,2 -4.9,5.5 -0.7,1.2 -0.4,1.9 1.2,4.6 0.4,0.7 0.9,1.5 1.4,2.3 0.4,0.8 1.6,2.9 0.2,4.6 -1.4,1.7 -3.8,1.3 -5.7,0.9 -0.7,-0.1 -1.4,-0.2 -1.8,-0.2 -2.2,0 -4.6,-0.8 -7.3,-1.6 -1.3,-0.4 -2.7,-0.8 -4.2,-1.2 -1,-0.3 -1.5,-0.4 -1.9,-0.5 -0.2,0.2 -0.5,0.4 -0.8,0.5 -2.7,1.6 -11.1,0.4 -13.4,-0.2 -1.3,-0.3 -5.3,1 -7.5,1.7 -1.7,0.5 -3.2,1.1 -4.5,1.3 -4.5,0.9 -6.8,-0.5 -9.4,-2.2 l -0.8,-0.5 c -0.9,-0.5 -1.9,-0.4 -3.6,-0.1 -1.5,0.3 -3.1,0.5 -4.8,-0.1 -1.7,-0.6 -4,-2.2 -5.6,-3.3 -2.2,1 -5.1,2.2 -6.9,2.2 -2.2,0 -5.8,-0.9 -9.1,-2.8 -1.5,-0.9 -3.7,-0.9 -4.5,-0.8 h -0.3 c -1.3,0 -5,0 -6.6,0.3 -2.3,0.4 -17.2,-0.9 -25.8,-1.7 l -0.5,-0.1 c -1.4,-0.4 -5.9,-1.3 -9,-0.8 -3,0.5 -5.1,1.2 -7.1,1.8 -0.8,0.3 -1.6,0.5 -2.4,0.8 -4,1.1 -6,-0.7 -8.2,-2.6 l -0.8,-0.7 c -0.7,-0.6 -1.1,-0.9 -1.3,-1 -0.1,0 -0.1,0.1 -0.2,0.1 -0.2,0.1 -0.5,0.3 -0.8,0.5 -1.9,1.2 -4.7,2.9 -7.4,2.9 -3,0 -7.9,-1.8 -9.5,-2.8 -0.2,-0.1 -0.6,-0.3 -0.9,-0.5 -1.5,-0.8 -4.1,-2.1 -6.4,-4.3 -1.4,0.4 -4.6,2.9 -7,5.4 l -0.8,0.9 h -1.3 c -0.3,0 -8.1,-0.1 -12.4,-5.3 -2,-2.4 -3.6,-3.2 -5.3,-4 -1,-0.5 -2.1,-1 -3.1,-1.8 -1,-0.6 -5.6,0.3 -7.4,0.7 -1.7,0.3 -2.9,0.6 -3.9,0.6 -0.9,0.1 -4.1,1.4 -7.2,3 l -2.5,6.5 -6.9,12.4 -2.3,-0.7 c -0.2,-0.1 -2.9,-0.9 -5.7,-2.2 h -0.1 v 0 c -1,-0.5 -2.1,-1 -3,-1.5 -2.5,-1.5 -4.1,-4 -5.3,-5.9 -0.6,-0.9 -1.2,-1.8 -1.6,-2.2 -1,-0.8 -7.2,-3.5 -12.6,-5.6 -0.9,0 -4.4,0.1 -14.1,1.5 -1.8,0.3 -3.2,0.5 -4.2,0.8 h 0.1 l -2.1,2.2 c -0.9,1 -4.3,4.1 -7.8,3.5 -1.3,-0.2 -2.5,-0.7 -4,-1.3 -1.6,-0.6 -3.5,-1.3 -6,-1.9 -1.8,-0.4 -2.5,-0.3 -3.3,-0.2 -1.5,0.2 -2.9,0.2 -5.4,-1 -1.2,-0.6 -2.1,-0.4 -3.7,0 -1.2,0.3 -2.5,0.6 -4,0.4 -0.8,-0.1 -3.1,-0.2 -5.6,-0.1 v 0.1 h -8.1 c -0.7,0 -1.3,0 -1.8,0 -2.3,0 -4.1,0.8 -5.4,2.4 -0.2,0.3 -0.7,0.9 -1.2,1.6 -2.2,3 -3.6,4.7 -4.7,5.6 0,0.6 0.1,1.7 0.2,2.6 0.2,1.3 0.3,2.8 0.3,4.5 0,2.8 4.3,5 4.3,5 l 2,1 -0.8,1.9 c -0.1,0.1 -1.5,3.4 -3.8,6.3 -0.5,0.6 -0.9,1.2 -1.3,1.8 -0.4,0.6 -0.8,1.1 -1.3,1.7 v 0.3 h -0.3 c -1.5,1.7 -3,2.9 -5.2,2.2 -0.2,-0.1 -0.6,-0.2 -1.1,-0.3 -2.5,-0.7 -7.7,-2.2 -11.6,-4.2 -0.6,-0.3 -0.9,-0.4 -1.1,-0.5 -0.2,0.1 -0.4,0.3 -0.6,0.5 -0.8,0.7 -1.9,1.7 -3.7,2.4 -0.9,0.3 -1.4,0.7 -1.9,0.9 -0.8,0.4 -1.8,1 -3.2,0.7 -1.5,-0.3 -2.1,-1.3 -3.1,-2.9 l -0.3,-0.6 c -2,-3.1 -7,-5.4 -8.7,-6.1 -1.7,-0.8 -7.4,-2 -10.5,-2.6 l -14.7,-2.1 -0.5,-0.3 c -0.2,-0.1 -4.3,-2.8 -6.8,-8.7 -0.2,-0.5 -0.4,-0.8 -0.5,-1 -0.2,0.1 -0.6,0.2 -0.8,0.2 -1.4,0.4 -3.4,1.1 -5.8,0.3 -1.9,-0.6 -3.1,-1.7 -4.2,-2.6 -1.8,-1.5 -3,-2.6 -6.8,-2 -5.2,0.8 -5.7,2.6 -5.7,2.6 l -0.1,1.1 -1.1,0.5 c 0,0 -2.6,1.6 -3.8,4.1 -0.5,0.9 -0.4,1.2 -0.3,1.9 0.2,1.1 0.4,2.6 -0.7,5.3 -1.6,4 -5.3,4.3 -7.5,4.4 -0.7,0 -1.6,0.1 -1.8,0.3 -3.7,3.2 -8,0.5 -10.8,-1.3 l -0.7,-0.4 c -2.8,-1.8 -5.5,-3.7 -7.1,-5.1 -0.6,-0.1 -1.8,-0.1 -2.7,-0.1 -3,0 -6.6,0 -9.5,-1.4 -1,-0.5 -1.1,-0.4 -2.2,-0.2 -1.4,0.4 -3.6,0.9 -7.6,-0.1 -3.3,-0.8 -3.7,-3.5 -4.1,-5.9 -0.3,-1.7 -0.6,-3.5 -1.6,-5.5 -0.5,-1 -0.8,-1.4 -1,-1.6 -0.1,0 -0.2,0 -0.3,0 -1.5,-0.1 -3.4,-0.3 -6,-2.1 -1.5,-1 -2,-1 -2,-1 0,0 -0.2,0.2 -0.3,0.3 -0.6,0.4 -1.5,1.1 -2.9,1.2 h -0.4 c -1.2,0.1 -3,0.2 -3.5,0.8 -0.2,0.2 0,1.5 0.1,2.2 0.2,1 0.4,2.2 0.4,3.6 0,2.1 -1.1,3.1 -2.1,3.5 -2.4,1 -4.6,-0.5 -7.3,-2.3 -0.5,-0.4 -1.1,-0.7 -1.6,-1.1 -3.4,-2.1 -3.7,-3 -4.6,-6.7 -0.1,-0.5 -0.3,-1.1 -0.4,-1.8 -1.1,0.4 -2.6,0.5 -4.4,-0.3 -2.7,-1.2 -7.7,-0.5 -8.8,-0.1 -2.2,1 -6.5,1.5 -9.3,0.2 -0.4,0.1 -1.3,0.4 -1.8,0.5 -2,0.7 -4.5,1.5 -7.1,1 -0.3,0.4 -0.5,1.5 -0.5,2.2 v 1.2 l -1.1,0.7 c -0.1,0.1 -3.3,2 -7,3 -1.4,0.4 -1.8,0.9 -2.8,1.9 -0.7,0.7 -1.6,1.7 -3,2.7 -0.7,0.5 -0.9,0.9 2,4.6 l 0.7,0.9 c 2,2.5 5.7,2.9 5.8,2.9 l 6.4,0.5 -5,3.6 c -0.5,0.4 -5.2,3.6 -9.5,3.6 h -7.4 c -0.7,1 -0.9,4.3 -1,5.5 l -0.1,1.2 c -0.4,4.7 -3.7,4.6 -7.8,4.5 -1,0 -2.2,-0.1 -3.7,-0.1 -4.7,0 -7.6,0 -8.1,-4.4 -0.1,-1 -0.3,-2.3 -1,-4.2 -0.9,-2.2 -1.4,-2.4 -1.6,-2.5 -2.3,-0.8 -3.3,-2.1 -4.2,-5.6 -0.2,-0.9 -0.4,-1.4 -0.6,-1.6 -0.3,0.1 -0.8,0.2 -1.2,0.3 -1.7,0.5 -4.1,1.1 -7.3,0.7 -2.4,-0.3 -2.5,0 -3.4,2.2 -0.6,1.3 -1.2,2.8 -2.7,4.1 -2.7,2.3 -4.9,2.3 -6.2,1.8 -1.2,-0.4 -3.2,-1.6 -3.5,-5.3 -0.5,-4.7 -0.4,-7.9 0.1,-9.6 -0.4,-2.2 -4.6,-10.1 -6.6,-11.4 -2.7,-1.7 -3.5,-1.9 -6.5,-1.9 h -1.2 c -3.4,0 -7.3,0.1 -13,-2.5 -3.9,-1.7 -4.7,-1.4 -7.3,-0.5 -0.5,0.2 -1.1,0.4 -1.7,0.6 l -0.7,0.2 c -1,0.3 -2,0.7 -2.3,0.8 0,0 0,0.3 0,1.1 0.1,0.8 0.1,1.4 0.2,2.1 0.3,1.9 0.6,3.9 -0.6,6.9 -0.5,1.2 -0.3,2.4 0,3.8 0.3,1.4 0.6,3 0,4.8 -1.2,3.5 -5.6,5.3 -11.3,7.5 l -1.4,0.6 c -4.9,1.9 -6.7,1.6 -9.3,0.5 -0.6,-0.3 -1.2,-0.6 -2.1,-0.8 -1,-0.3 -2,-0.5 -3.1,-0.8 -3.4,-0.8 -7.3,-1.6 -8.3,-4.4 -1.5,-0.6 -6.1,-1.2 -8.9,-1.6 -3.4,-0.5 -6.6,-0.9 -8.9,-1.6 -5.7,-1.6 -10.5,-2.3 -16.1,-2.3 -4.6,0 -9.6,-1.4 -14,-2.7 -1.9,-0.5 -3.6,-1 -5.2,-1.4 -3.4,-0.8 -11.7,-0.5 -17.8,-0.3 -2.9,0.1 -5.5,0.2 -7.5,0.2 -3.5,0 -8.2,1.8 -12.8,3.6 -2.7,1 -5.5,2.1 -8.1,2.8 -4.2,1.1 -6.9,2.5 -10.1,4 -1.9,0.9 -3.8,1.8 -6.3,2.8 -6,2.5 -7.7,4.4 -8.9,6 -1.1,1.5 -2.8,2.4 -5.5,3.8 -2.2,1.1 -5.2,2.7 -9.5,5.3 -2.1,1.3 -2.8,2 -3,2.3 0.2,0.2 0.6,0.6 0.9,0.8 1.3,1.1 3.2,2.8 3.2,5.4 0,1.7 5.8,3 8,3.4 1.4,0.3 2.3,0.5 3,0.8 1.9,0.9 10.3,5.5 12.7,11 0.8,1.8 0.3,3.2 -0.2,4 -1.8,2.6 -6.2,3 -11.3,3.6 -2.2,0.2 -4.5,0.5 -6.3,0.9 -5.1,1.1 -6.3,3 -6.3,3 l -1,2 -2.3,-0.8 -4.6,-1.4 -0.5,-0.6 c -0.8,-1 -8,-9.8 -9.7,-13.8 -0.8,-2 -1.1,-3.5 -1.5,-5.3 -0.4,-1.8 -0.8,-4.1 -2.1,-8.1 -0.4,-1.1 -0.7,-1.8 -0.9,-2.3 -1.1,0.5 -2.7,1.2 -4.8,0.7 -0.6,-0.1 -0.8,-0.1 -0.8,-0.1 0,0.1 -0.4,0.7 -0.7,1.1 -0.4,0.6 -0.9,1.3 -1.5,2 -0.8,1 -0.5,4.1 -0.1,7.1 0.3,2.3 0.6,5 0.5,7.8 0,7.7 -2.8,15.1 -2.9,15.5 l -0.5,1.2 -6.8,1.4 c -2.3,0.5 -3.5,0.7 -4.5,0.7 -0.7,0 -1.3,-0.1 -2.1,-0.2 -0.8,-0.1 -1.8,-0.3 -3.8,-0.4 -2,-0.1 -3.9,-0.5 -5,-1.9 -1,-1.4 -0.4,-2.8 0.1,-3.9 0.4,-0.8 0.7,-1.7 0.6,-2.6 -0.2,-1.2 -0.8,-4.4 -1.5,-4.5 -2.7,-0.5 -6,-0.5 -6.8,-0.2 -3.2,1.4 -8.3,3.9 -9.4,5.1 -2.6,2.7 -8.7,1.1 -15.8,-1.2 -0.6,-0.2 -1.1,-0.3 -1.4,-0.4 -3,-0.9 -8.5,-4.3 -9.8,-6 -1,-1.3 -1,-3.7 -0.5,-10.7 0.1,-1.4 0.2,-2.7 0.2,-3.4 0,-2.9 -0.9,-9.7 -1.9,-11.4 -0.4,-0.6 -2.4,-1.5 -4.9,-2.4 l -7,-1 c 0,0 -4,0.4 -6.3,0.4 -2.2,0 -1.8,-1.2 -2.7,-3.1 -0.9,-2 3.1,-1.2 4.5,-1.5 1.3,-0.4 7.2,0 7.2,0 0,0 1.3,-1.2 -0.1,-3.1 -1.4,-2 0.5,-2.3 0,-3.1 -0.5,-0.8 -6.6,2.3 -6.6,2.3 0,0 -0.9,-1.9 1.4,-5.8 0.8,-1.4 -2.2,-0.8 -6.3,-2 0,0 2.7,-3.1 4.1,-4.9 1.4,-1.8 3.1,1.4 5.7,0 2.6,-1.4 2.4,-2.9 0,-6 -1.2,-1.5 -1.7,1.2 -4.8,2.3 -3.1,1.2 -3.6,0.4 -6.7,0.7 -3.1,0.4 0.5,-2.3 0.9,-3.9 0.5,-1.6 3.1,0 6.7,-1.5 3.6,-1.5 2.7,-0.4 3.6,-3.9 0.9,-3.5 0,-1.9 -4.4,-7.4 -1.9,-2.3 -1.3,-2.3 -3.1,-5.9 -1.8,-3.5 -4.9,-5.5 -6.7,-6.3 -1.8,-0.8 -6.3,0.7 -12.5,-0.1 -6.3,-0.8 0,0 -13.4,3.8 0,0 0,-3.5 -10.3,-5.5 -2,-0.4 -2.2,0.8 -9,8.7 -2.1,2.5 -4,1.3 -4.9,0.6 -0.9,-0.8 -2.7,-0.8 -5.8,0 -3.1,0.8 -0.5,3.5 -0.5,3.5 0,0 0,4.3 3.5,6.3 0,0 0.4,4.2 0,6.2 -0.5,1.9 -1.8,0.4 -4,0.4 -2.2,0 -5.4,-0.4 -7.1,-2.4 -1.8,-1.9 -4.4,-0.8 -4.9,-3.5 0.2,1.2 0.6,3.7 0.9,5 0.4,2.3 0.4,2.7 2.6,7.8 0,0 0.9,3.9 -0.5,7 -1.4,3.1 0,0 -2.2,3.1 -0.8,1 0,3.5 0,3.5 l 2.2,4.3 c 0,0 4.5,2.4 4.9,5.5 0,0 -2.2,1.5 -4,1.5 -1.8,0 -1.8,0.4 -4.9,-2 -3.1,-2.3 -3.6,-2 -3.6,-2 0,0 -2.2,0.5 -2.7,3.6 -0.5,3.1 0.4,3.5 -2.7,8.5 -1.1,1.7 -2.2,0.4 -3.1,-2.7 -0.9,-3.1 -2.7,-2.7 -3.5,-4.7 -0.9,-1.9 -1.8,-2 -4.5,-3.9 -2.7,-2 -3.1,0 -5.4,0 h -6.4 c 0,0 -15.8,8.3 -20.6,11.6 -7.7,5.3 -21.6,17.9 -26.5,25.3 -6.6,9.8 -12.4,32.3 -16.1,43.2 -5,14.7 -13.8,45.6 -25,57.4 -10.4,10.9 -41.7,22.3 -53.9,31.7 -11.7,9 -35.5,33.7 -49.3,48.3 l 1618.1,0.1 -50.5,-63 v 0 l -5.5,-20.9 -3.3,-21.9 -19.7,-16.1 c 0,0 2,0.9 3.6,-18.8 1.5,-19.7 -8.5,-4.9 -8.5,-4.9 0,0 -9.8,-8.7 -12.7,-12.4 -2.8,-3.7 -1.4,6.1 -2.8,-3.7 -1.4,-9.8 1.5,-11.1 -2.7,-19.7 -4.4,-8.6 -4.9,-19.8 -4.3,-21.3 z m -1288.2,-42.1 c 0,0 0,-0.1 0,0 -0.2,-1.4 -0.2,-1 0,0 z m 802.4,-457 v -8.2 l 8.1,-8.3 -73.1,-10.7 -0.5,95.1 27.4,4.6 V 660 l -2.7,-1.4 0.2,-41.8 3.4,-4.5 v -3.8 l -1.4,-1.1 c 0,0 -0.7,-9.6 3.4,-8.5 4.8,1.4 3.5,9.4 3.5,9.4 l -0.7,1.2 v 4 l 1,4.8 h 2 l -0.2,42.3 -0.9,1.6 v 6.1 l 8.7,1.5 v -6.6 l -2.7,-1.4 0.2,-41.8 3.4,-4.4 v -3.8 l -1.4,-1.1 c 0,0 -0.7,-9.6 3.4,-8.5 4.8,1.4 3.5,9.4 3.5,9.4 l -0.7,1.2 v 4 l 1,4.8 h 2 l -0.2,42.3 -0.9,1.6 v 5.5 l 16.2,2.7 -3.4,-2 0.4,-73.6 z m -45.4,62.4 -0.9,1.6 v 6.3 l -7.6,-1.4 v -7.2 l -2.7,-1.4 0.2,-41.8 3.4,-4.5 v -3.8 l -1.4,-1.1 c 0,0 -0.7,-9.6 3.4,-8.5 4.8,1.4 3.5,9.4 3.5,9.4 l -0.7,1.2 v 4 l 1,4.8 h 2 z m -385.2,385.6 0.7,-0.2 c 0.5,-0.2 0.9,-0.4 1.4,-0.5 l 0.3,-61.2 -280.6,33.7 -2.5,73 c 3.1,1.3 6.9,3.2 8,5.6 1.6,3.3 2.4,12.4 2.4,15.5 0,0.9 -0.1,2.5 -0.2,4.2 -0.1,2.5 -0.4,7.7 -0.2,9.2 1,1.1 4.9,3.9 6.9,4.6 0.4,0.1 0.9,0.3 1.6,0.6 6.6,2.4 9.1,2.8 10.1,2.7 2.7,-2.9 10.1,-6.6 10.9,-7 3.3,-1.6 10,-0.2 10.3,-0.2 4.3,0.9 5.1,5.5 5.7,9.6 0.3,2.1 -0.1,3.9 -0.6,5.1 0,0 0,0 0.1,0 2.2,0.2 3.5,0.4 4.3,0.6 1.3,0.2 1.4,0.3 4.4,-0.4 l 3.9,-0.9 c 0.7,-2.7 2.2,-8.8 2.2,-14.8 0,-3 -0.3,-5.9 -0.5,-8.5 -0.5,-5.1 -0.9,-9.1 1.1,-11.9 0.5,-0.7 0.9,-1.3 1.2,-1.9 1.2,-2 2.8,-4.8 7.5,-3.6 0.2,0.1 0.6,-0.1 1.1,-0.5 1,-0.5 2.5,-1.4 4.4,-0.6 2,0.9 3.1,3.2 4,6.5 1.4,4.8 1.9,7.6 2.3,9.9 0.3,1.9 0.6,3.3 1.3,5.2 1.1,3.2 6.1,10.6 8.5,13.9 l 1.2,0.4 c 1.4,-1.4 3.9,-3.1 8.3,-4.3 2.1,-0.6 4.6,-0.8 7,-1.1 2.3,-0.3 6.1,-0.7 7.2,-1.4 -1.9,-4.5 -8.5,-9 -10.2,-9.9 -0.2,-0.1 -1.1,-0.3 -1.8,-0.5 -4.2,-1 -12.1,-2.9 -12.1,-9.2 0,-0.8 -0.5,-1.3 -1.6,-2.4 -1.2,-1.1 -2.7,-2.7 -2.5,-5.1 0.2,-2.2 1.8,-4.2 5.3,-6.7 4.5,-3.2 7.6,-5 9.9,-6.4 2,-1.2 3.3,-2 3.7,-2.6 1.7,-2.7 4.2,-5.7 11.2,-9 2.3,-1.1 4.2,-2.1 6,-3.1 3.3,-1.8 6.4,-3.5 11,-5 2.3,-0.7 4.8,-1.9 7.5,-3 5.1,-2.3 10.4,-4.6 15,-4.6 1.8,0 4.4,-0.1 7.2,-0.2 7.2,-0.3 15.3,-0.6 19.4,0.4 1.7,0.4 3.6,1 5.5,1.7 4,1.3 8.5,2.8 12.3,2.8 6.1,0 11.5,0.9 17.7,2.9 1.9,0.6 5.1,1.1 8.1,1.6 7.6,1.2 12.6,2 13.2,5.6 0.4,0.4 3,1 4.5,1.4 1.1,0.3 2.3,0.6 3.4,1 1.3,0.4 2.2,0.9 2.9,1.3 1.2,0.6 1.5,0.8 4.6,-0.6 l 1.4,-0.6 c 4,-1.8 7.9,-3.5 8.3,-5.2 0.2,-0.8 0.1,-1.8 -0.1,-3.1 -0.3,-1.9 -0.7,-4.3 0.2,-7 0.8,-2.2 0.6,-3.5 0.4,-5.5 -0.1,-0.8 -0.2,-1.7 -0.3,-2.7 0.1,-5.1 2.3,-6.2 6.2,-7.6 z m -227.2,-4.9 -7.3,0.4 0.1,-17.1 7.3,-0.6 z m 9.6,-0.5 -7.7,0.4 0.1,-17.4 7.7,-0.6 z m 30.8,-3.8 -7.3,0.4 0.1,-17.1 7.3,-0.6 z m 9.6,-0.5 -7.7,0.4 0.1,-17.4 7.7,-0.6 z m 31.4,-4.1 -7.3,0.4 0.1,-17.1 7.3,-0.6 z m 9.6,-0.5 -7.7,0.4 0.1,-17.4 7.7,-0.6 z m 32,-3.8 -7.3,0.4 0.1,-17.1 7.3,-0.6 z m 9.6,-0.5 -7.7,0.4 0.1,-17.4 7.7,-0.6 z m 31.8,-4.3 -7.3,0.4 0.1,-17.1 7.3,-0.6 z m 9.7,-0.5 -7.7,0.4 0.1,-17.4 7.7,-0.6 z m 35,-21.2 7.7,-0.6 -0.1,17.6 -7.7,0.4 z m -9.3,0.7 7.3,-0.6 -0.1,17.3 -7.3,0.4 z m -6.4,56.3 c 0,0 4.1,-9.4 12.4,-10.2 8.3,-0.8 12,9.5 12,9.5 z m 397.4,-599.8 c -10.2,-0.1 -21,1.5 -28.8,3.1 0.2,-0.2 0.4,-0.3 0.4,-0.3 0,0 11.3,-7.8 11.4,-25.9 0,0 -1.1,-2.2 -1.1,-4.5 0,-2.2 1.1,-4.7 1.1,-4.7 0,0 1.4,-6.3 2.3,-8.9 0.9,-2.7 1.3,-1.6 1.6,-4.2 0.2,-2.7 0.1,-12.1 0.1,-12.1 -0.4,-4.3 0,-3.1 0.1,-7.4 0.2,-4.2 1,-3.3 1.1,-7.8 0,-4.5 -0.2,-3.1 0,-7.2 0.2,-4 0.2,-3.1 0,-6 -0.2,-2.9 1.5,-3.6 0.2,-5.8 -1.3,-2.2 -0.8,-2 -1.7,-4.3 -0.9,-2.2 0.5,-3.3 -0.9,-5.6 -1.3,-2.2 -2,-0.2 -2.2,-3.1 -0.2,-2.9 0.3,-6.5 0.1,-9.4 -0.2,-2.9 -0.2,-1.8 0.9,-4.2 1.1,-2.5 0.7,-1.6 1.8,-3.8 1.1,-2.2 0.7,-3.1 2.7,-4.5 2,-1.3 2,-1.6 2.7,-3.1 0.7,-1.6 1.8,-1.6 1.6,-3.3 -0.2,-1.8 0.3,-2.2 0.1,-4.7 -0.2,-2.5 0,-3.8 0.1,-5.4 0.1,-1.6 -0.8,-1.6 0,-2.7 0.8,-1.1 0.8,-0.4 1.3,-2 0.5,-1.6 -0.2,-2.2 1.1,-2.9 1.3,-0.7 1.4,-1.6 2.2,0 0.9,1.6 0.9,0.5 1.1,2.5 0.2,2 -1.1,1.3 0.2,2 1.3,0.7 1.6,1.4 2.7,0.2 1.1,-1.1 0.9,-3.8 2.5,-1.6 1.6,2.2 0.4,-0.4 1.6,2.2 1.1,2.7 0.9,0.7 1.3,3.6 0.4,2.9 0.4,1.6 0,4 -0.5,2.5 -0.5,1.8 -1.4,3.6 -0.9,1.8 -0.2,-0.2 -0.9,1.8 -0.7,2 -0.9,1.8 -0.7,4 0.2,2.2 -1.8,2.7 0.2,2.2 2,-0.4 2.2,0.7 3,-0.9 0.8,-1.6 0.6,-2.2 1.5,-2.9 0.9,-0.7 0.5,-2 2.5,-1.5 2,0.5 1.1,0.5 3.1,0.5 2,0 2.7,0 3.3,0.9 0.7,0.9 -1.1,-0.5 0,2 1.1,2.5 2.2,2 1.1,3.8 -1.1,1.8 -0.4,-0.2 -1.1,1.8 -0.7,2 -2.2,1.1 -0.7,2 1.6,0.9 1,1.5 2.3,0.2 2.5,-2.4 1.6,-3.1 2.5,-4.2 0.9,-1.1 0.9,-2 2,-1.6 1.1,0.5 0.9,-1.3 1.1,0.5 0.2,1.8 0.9,-1.1 0.2,1.8 -0.7,2.9 0.5,-0.7 -0.9,4.5 -1.4,5.1 -1.1,3.8 -2.5,4.7 -1.3,0.9 -1.1,0 -2.9,0.9 -1.8,0.9 -0.9,-0.2 -1.8,0.9 -0.9,1.1 -1,0.9 -0.5,2.2 1.5,4 1.8,5.2 1.8,5.2 0,0 0,2.2 0.2,4.3 0.2,2 1.3,1.3 0.2,3.8 -1.1,2.5 0.2,1.6 -1.1,2.5 -1.1,1.5 -1.8,1.7 -2.1,1.8 -0.4,-0.7 -0.9,-1.5 -0.1,0.1 0,0.1 0,0.2 0.3,0.6 2.2,3.8 1.8,0.7 2.2,3.8 0.4,3.1 0.2,4.2 0.4,6.7 0.2,2.5 0,2.5 0.2,3.6 0.2,1.1 0.4,1.1 0.6,3.6 0.2,2.5 0,1.1 -0.5,4 -0.5,2.9 -0.9,0.9 -0.9,3.8 0,2.9 -0.5,1.8 0,4.2 0.4,2.5 0.2,2.5 0.4,5.6 0.2,3.1 -0.2,2.5 0,5.1 0.2,2.7 0,4.3 -0.7,4.2 -1.8,0 -3.6,-1.6 -3.6,-1.6 0,0 -2,-3.4 -2,-2.2 0,1.1 -0.2,0 0,4.2 0.2,4.3 -0.2,4 0,6 0.2,2 0.2,1.3 0.2,3.8 0,2.5 -0.7,2.5 -0.2,4.2 0.4,1.8 -0.9,0.7 0.4,1.8 1.3,1.1 1.3,1.3 1.3,3.6 0,2.2 -1.1,2.9 -1.1,4.5 v 0.1 c -0.1,18.1 11.1,26 11.1,26 0,0 0.1,0.1 0.2,0.1 -6.7,-1.4 -15.2,-2.8 -24.2,-2.8 z m -646.2,554.3 -0.2,-1 h 4.7 l 0.7,-7.2 279.9,-32.9 v 6.8 z m 180.4,-34.3 -95.8,11.3 1.4,-0.2 1.5,-13 12.1,-1.6 0.1,-11.1 17.8,0.1 v 8.7 l 38.6,-4.1 v -6 l 12.4,0.1 v 4.4 l 14.8,-0.9 v 0.6 l -2.7,0.3 z m 155.6,-309.2 -17.1,17.2 0.1,-10.7 h 5.4 c 0,0 0.2,-41.6 41.9,-57.1 0,0 -1.3,-2.7 3.7,-2.7 0,0 1.4,-5.7 4.4,-5.7 0,0 0.1,-12.7 2.1,-16.8 l 0.1,-17.8 h -4.4 v -1.6 h 4.4 v -4.9 h 0.8 0.8 v 4.9 h 4.4 v 1.6 h -4.4 l -0.1,17.8 c 2,4 1.9,16.8 1.9,16.8 3,0 4.3,5.7 4.3,5.7 5,0 3.7,2.7 3.7,2.7 41.5,16 41.3,57.6 41.3,57.6 h 5.4 v 8.4 l -16.3,-15.2 -16.7,17 -23.8,-20.1 -23.3,17.9 z m 326.1,-303.9 c 0,0 0,0 0,0 0.4,0.5 0.7,1 0.3,0.6 -0.1,-0.2 -0.2,-0.4 -0.3,-0.6 z m -97.6,156.1 c 0,-0.7 -0.7,-2.2 0,-2.2 h 4 c 0,0 1.3,4.7 3.3,3.6 2,-1.1 2.9,-2.4 2.9,-2.4 0,0 2.4,-2.9 2.5,-2.7 0.2,0.2 0.6,-0.4 1.3,2 0.7,2.5 -1.1,3.3 0,4 1.1,0.7 4.9,-1.5 4.9,-1.5 l 2,3.4 c 0,0 1.1,0.5 0,4.3 -1.1,3.8 -0.7,7.6 -1,9.8 -0.2,2.2 -1.4,4.5 -0.7,5.8 0.7,1.3 2,2.7 2,2.7 v 3.4 2.7 h 8 l 0.1,-9.8 -1.5,-2.7 20.8,-7.7 v -5.6 c 0,0 -2.9,-0.7 -2.9,-2.5 0,-1.8 2.9,-2.7 2.9,-2.7 l 4.3,-12.9 0.2,-42 c 0,0 -0.8,-0.5 -1.6,-1.1 7.8,-1.6 19.3,-3.5 30,-3.4 9.7,0.1 19,1.7 25.6,3.3 -0.8,0.7 -1.7,1.2 -1.7,1.2 l -0.2,42 4.1,13 c 0,0 2.9,0.9 2.9,2.7 0,1.8 -2.9,2.4 -2.9,2.4 l -0.1,24 2.9,0.5 v -4.7 l 10.4,0.1 v 6.5 l 13.8,0.1 c 0,0 0.9,-3.5 1.5,-4.4 0.7,-0.8 1.4,-1.8 1.7,-2.8 0.3,-1 -0.3,-1.8 0,-3.5 0.3,-1.7 0.7,-3.4 0.1,-5 -0.6,-1.7 -0.9,-1.5 -1.1,-3 -0.2,-1.5 -0.6,-3.9 -0.6,-3.9 0,0 0,-3.9 0.4,-5.4 0.3,-1.5 1,-3.7 1,-3.7 0,0 -0.3,-2.7 2,-1.2 l 2.3,1.5 1.2,-0.2 c 0,0 -0.3,-1 0,-1.8 0.3,-0.8 0.9,-2.7 1.5,-2.5 0.7,0.2 1.8,-1 2.3,0 0.5,1 0.3,1.3 1.2,2.2 0.8,0.8 2.7,1 2.7,1 l 2.4,-1.5 c 0,0 2.2,-0.7 3.2,-0.7 1,0 0.4,-2.5 1,0 0.7,2.5 2.3,0.9 0,3.2 -2.4,2.3 -1.8,1 -2.4,2.3 -0.5,1.3 -0.8,0.8 -1,2.5 -0.2,1.7 -0.4,2.7 -0.4,2.7 0,0 -2.9,0.6 -3.5,1.2 -1.7,1.7 -3.7,3.2 -2.2,3.5 1.5,0.3 1.7,0.2 2.5,0.5 0.8,0.3 0.5,0.2 1.7,0.5 1.2,0.3 0.2,-1 1.2,0.3 1,1.3 1,1 1.2,3 0.2,2 0.2,2.5 -0.2,3.9 -0.3,1.3 -0.2,1.2 -0.9,2.3 -0.7,1.2 -0.7,-0.3 -0.7,1.2 0,1.5 0.8,1.5 -0.2,2.5 -1,1 -2,0.2 -2.4,1.5 -0.3,1.3 -1.4,1.7 -0.5,2.5 0.8,0.8 -1,1 0.8,0.8 1.8,-0.2 1.4,-2.2 1.8,-0.2 0.5,2 0.8,1.5 1,3 0.2,1.5 0.3,-0.2 0.2,1.5 -0.2,1.7 -1.4,1.7 -1.7,2.3 -0.3,0.7 -0.9,1.7 -1,2.7 -0.2,1 -1,1 -0.5,2.2 0.5,1.2 0.7,0.7 1.2,2.2 0.5,1.5 0.5,2 1,3.2 0.3,0.7 0.9,2.5 2.1,4.3 l -74.8,-11 -0.4,-0.1 -80.6,11 c 2.6,-2.5 6.6,-6.9 6.6,-10.8 0,-5.8 -4,-6.5 -4,-9.4 0,-2.9 3.8,-2.7 3.8,-2.7 0,0 0.5,-2.7 -0.2,-4 -0.7,-1.3 -2.9,-2.9 -2.9,-4 v -3.4 c 0,-1.1 -1.5,-2.5 0,-4.9 1.6,-2.4 -0.7,-2 1.6,-2.4 2.2,-0.4 4,0.2 4.9,-0.9 0.9,-1.1 3.6,-2.9 1.6,-3.1 -2,-0.2 -5.1,0.6 -6.3,0 -1.1,-0.7 -2.2,-0.9 -2.2,-3.1 0,-2.2 0.7,-2.7 -0.7,-3.6 -1.1,-0.8 -2.6,-1.2 -2.6,-1.9 z m -245.9,220.1 -2.7,2.3 v 7.4 h 1.2 l 34.2,-2 0.3,-60.1 -15.2,-12.6 -20.5,20.6 -0.1,10.4 3,7.7 z m 21.7,-44.1 c 5,-1.5 4.9,4.1 4.9,6.3 l -0.2,37.3 -8.5,1.1 0.2,-35.8 c 0,0.1 -0.4,-7.1 3.6,-8.9 z m 5.6,79.6 -31.1,-20.4 20.1,0.1 30.4,22.2 z m 58.4,-85.7 -0.3,58.3 24.4,4 8.4,-1.3 v -7.9 l -2.7,-2.4 0.1,-26.2 3.1,-7.7 0.1,-13.4 -19.1,-17.8 z m 13.8,15.5 -0.2,35.8 -8.5,-1.2 0.2,-37.3 c 0,-2.2 0,-7.8 5,-6.2 3.9,1.8 3.5,8.9 3.5,8.9 z m -153.1,88.4 -9,-7.8 9.1,0.1 35.6,-31 h 4.2 l 39.2,25.7 7,0.7 -0.6,105.9 -6.4,1 2.8,-2.3 0.4,-62.8 c 0.1,-1.2 1.5,-28.7 -12.3,-40.1 -5.8,-4.8 -13.4,-6.1 -22.5,-3.7 -36.2,9.4 -34.5,50.8 -34.4,51.1 v 0.3 l -18.5,1.1 v -0.7 h 5.4 z m 25.4,175.8 31.5,-2.6 -0.5,87.4 c -1.3,-2.1 -2.5,-3.7 -3.5,-4.4 -3.5,-2.6 -5.4,-3.2 -9.6,-3.2 h -1.3 c -3.1,0 -5.9,0.1 -10.5,-2.3 -2.8,-1.5 -4.8,-2 -6.6,-2 z m -92,-35.4 -2,-4 v -4 l 27.6,-9.2 0.1,-11.7 h 6.7 v 4 l 20.5,-3.9 0.1,-18.4 4.1,-6 v -6.4 h 4.4 v 6.4 l 4.7,0.7 0.2,-40.9 h -5.4 v -3.3 l 18.5,-1.1 -0.7,118 -80.7,9.4 1.8,-2.4 z m 86.7,30.5 -99.3,11.7 v -6 l 132.2,-15.5 v 6.9 z m 71.1,-147.5 181.1,-19.1 -0.5,87.7 -8.1,-1.2 0.2,-41.4 c 0,-0.7 -1,-16.7 -11.4,-24.4 -5.4,-4 -12.3,-5.1 -20.5,-3 -14.7,3.6 -21.9,14.1 -25.3,23.5 -1.6,-4.8 -4.4,-10.3 -9.3,-13.9 -5.4,-4 -12.3,-5.1 -20.5,-3 -15.1,3.7 -22.3,14.7 -25.6,24.3 -1.5,-5.1 -4.4,-11.1 -9.6,-15 -5.4,-4 -12.3,-5.1 -20.5,-3 -28.7,7.1 -28.6,40.1 -28.6,40.4 l -0.1,17.2 -1.7,0.3 z m 131.3,137.1 116.2,16.1 0.6,-38.6 -121.7,-15.5 -0.2,34.5 5.1,1.4 z m 102.4,-10.6 2.1,0.4 -0.1,9.3 -2.1,-0.4 z m -27.9,-1.1 2.1,0.4 -0.1,9.3 -2.1,-0.4 z m -12.4,-1.8 2.1,0.4 -0.1,9.3 -2.1,-0.4 z m -12.5,-2.2 2.1,0.4 -0.1,9.3 -2.1,-0.4 z m -12.4,-1.7 2.1,0.4 -0.1,9.3 -2.1,-0.4 z m -12.6,-1.7 2.1,0.4 -0.1,9.3 -2.1,-0.4 z m -11.7,-1.7 2.1,0.4 -0.1,9.3 -2.1,-0.4 z m -13.2,7.2 0.1,-9.3 2.1,0.4 -0.1,9.3 z m 146.2,50.3 -12.8,-21.1 0.2,-35.4 13,-8.8 12.9,9 -0.2,35.4 z m -221,-75.1 -112.8,13.3 -0.1,22.6 23.9,-2.8 -0.1,12.5 4,-0.3 -0.5,96.2 h -3.7 c 2.3,4.5 4.2,9.6 3.4,11.6 -0.2,0.7 -0.2,4.3 0.2,9 0,0.4 0.1,0.8 0.2,1 0.1,-0.1 0.3,-0.3 0.5,-0.5 0.7,-0.7 1.1,-1.7 1.5,-2.8 1,-2.5 2.6,-6.8 9.2,-5.9 2,0.3 3.5,-0.2 5,-0.6 1.7,-0.5 3.5,-1.1 5.4,0 1.9,1.1 2.7,3.4 3.1,5.5 0.5,2.1 0.8,2.6 0.9,2.6 2,0.7 3.4,1.9 4.8,6.1 1,2.8 1.2,4.8 1.3,6.1 0,0 0,0.1 0,0.1 0.8,0.1 2.1,0.1 2.7,0.1 1.5,0 2.8,0 3.9,0.1 0.8,0 1.6,0.1 2.2,0 0,-0.1 0,-0.2 0,-0.3 l 0.1,-1.3 c 0.3,-4.5 0.8,-11.4 6.1,-11.4 h 7.7 c 0.5,0 1,-0.1 1.5,-0.3 -1.3,-0.8 -2.6,-2 -3.7,-3.5 l -0.7,-1 c -2.5,-3.5 -5.8,-8.4 -1.1,-12.4 1,-0.9 1.7,-1.6 2.3,-2.4 0.6,-0.8 1.3,-1.6 2.2,-2.3 l -38.3,0.7 c 0,0 -2.3,-38.5 25.9,-40.1 21.5,-1.2 19.8,24 19.8,24 l -0.1,11.8 c 0.1,-0.1 0.2,-0.1 0.3,-0.2 0.2,-1.6 0.8,-3.9 2.5,-5.3 1.2,-0.9 2.7,-1.3 4.2,-1 1.1,0.2 2.7,-0.4 4.2,-0.9 2.1,-0.8 4.3,-1.6 6.2,-0.3 0.4,0.3 1.7,0.3 2.9,0.1 l 0.5,-82.9 h -4.6 l 0.1,-10.5 6.8,-0.9 z m -75.6,81.6 -2.5,0.3 0.1,-8.8 2.5,-0.3 z m 1.5,-49.3 -2.5,0.3 0.1,-8.8 2.5,-0.3 z m 23.7,-2.3 -4.3,0.2 0.1,-8.8 4.3,-0.3 z m 9.8,49.6 -2.6,0.3 0.2,-27.9 2.6,-0.3 z m 2.4,-50.8 -4.3,0.2 0.1,-8.8 4.3,-0.3 z m 12.1,-1.3 -4.3,0.2 0.1,-8.8 4.3,-0.3 z m 20.4,37.2 -0.1,8.9 -2.5,0.3 0.1,-8.8 z m 1.4,-39.9 -2.5,0.3 0.1,-8.8 2.5,-0.3 z m -114,11.6 0.2,-28 47,-5.5 0.1,-17.8 -10.7,-8.4 10.8,-9 0.3,-60.4 c 0,-0.4 1.4,-26.1 -10.4,-35.8 -4.5,-3.7 -10.3,-4.6 -17.7,-2.6 -31.9,8.2 -30.5,44.2 -30.4,45.8 L 1595.3,952 Z M 1630.1,837 c 0,0 0.5,-7.2 4.7,-7.1 4.2,0 3.1,7.4 3.1,7.4 l -0.2,39.8 -7.8,0.8 z m -4.5,-38.3 c 2.2,0 3.9,3.5 3.9,7.7 0,4.3 -1.8,7.7 -4,7.7 -2.2,0 -3.9,-3.5 -3.9,-7.7 0.1,-4.3 1.9,-7.7 4,-7.7 z m -12.1,40.2 c 0,0 0.5,-7.2 4.7,-7.1 4.2,0 3.1,7.4 3.1,7.4 l -0.2,39.8 -7.8,0.9 z M 1723.4,953 v 0 l 0.2,0.5 h -0.2 z m 269.3,-26.9 0.1,-21.4 c 0,0 0.1,-17.2 -11.5,-19.9 -8.5,-2 -8.8,13.3 -8.8,13.3 l -0.2,39.3 -3.5,2 0.2,-42.2 c -0.4,-5 0.1,-19.2 6.6,-24.3 2.8,-2.2 6.6,-2.6 11.5,-1.1 17.4,5.4 18.1,25.1 18.1,25.9 l -0.2,29.1 -10.7,-1.5 z m -236,-21.6 -29.2,3.9 v 0 l -68.1,8 0.1,-19.8 -5.3,-4.2 75.6,-11.9 h 1.6 v -0.3 l 25.6,-4 z m 281,32.2 c -4.9,6.2 -6.8,17 -7.4,21.2 -10.1,0.1 -10.7,12 -10.7,12 l -0.1,18 -22.4,-14.3 0.2,-42.4 z m -371.1,-185.5 47.1,0.3 17.1,2.8 -32.7,23.4 -9.8,-0.9 -33.9,-24.8 z m 298.1,196.6 27.4,-15.2 -0.3,43.8 38.1,24.4 -0.1,14.6 -65.2,-47.8 z m -208.2,-1.6 -26.2,3.4 0.2,-36.1 26.2,-3.5 z m 267.1,39.1 6.4,-2.8 -0.1,12 -4.5,-2.9 v -2.7 l -1.8,-1.6 z m -273.2,60.9 c -1.5,2 -1.2,4.3 -0.9,6.5 0,0.3 0.1,0.6 0.1,0.9 -0.2,-0.1 -0.3,-0.3 -0.5,-0.4 -0.6,-0.5 -1.2,-0.9 -1.7,-1.3 -1.8,-1.3 -1.8,-1.3 -2.5,-4.4 -0.1,-0.7 -0.3,-1.4 -0.5,-2.3 -0.4,-2 -1,-4 -2.8,-4.7 -1.7,-0.7 -3,0.2 -3.7,0.6 -0.2,0.1 -0.5,0.3 -0.7,0.3 -2.9,-1.5 -6.7,-1.5 -9.7,-1.1 l 0.5,-85 28.5,-3.7 -0.5,91.8 c -1.9,0.2 -4.2,0.9 -5.6,2.8 z m 279.7,-77.4 -0.5,-0.5 v -6 l 0.5,-0.4 z m -304.8,-93.1 0.1,-21.3 c 0,0 -0.9,-14 -9.2,-20.2 -4.1,-3 -9.4,-3.7 -16,-2.1 -24.6,6.1 -24.5,34.9 -24.5,35.2 l -0.1,16.4 z m -25.4,-12.2 c 0,0 0,-5.1 2.9,-5.6 2.9,-0.4 2.9,4 2.9,4 v 7.9 l -5.8,1.1 z m 242,57 0.1,-21.6 c 0,0 -0.6,-16.1 -10.7,-14.1 -10.1,2 -11.5,16.7 -11.5,16.7 l -0.1,23.3 0.4,0.3 -12.6,-1.6 0.1,-26.1 c 0,-0.2 0.8,-20.5 18.4,-25.8 4.9,-1.5 8.6,-1.1 11.5,1.2 6.4,5.2 6.8,19.4 6.3,24.6 l -0.1,22.1 z m -19.5,11.2 5.7,2.5 -0.2,34.9 h -6.1 z m -139.4,-57.8 53,8.1 0.2,-40.4 c 0,0 -0.8,-14 -9.2,-20.2 -4.1,-3 -9.4,-3.7 -16,-2.1 -24.6,6.1 -24.5,34.9 -24.5,35.2 l -0.1,19.6 z m 33.7,-28.9 c 3.5,-0.8 3.1,5.1 3.1,5.1 l -0.1,15.7 -6.3,0.9 0.1,-15.4 c 0,-0.1 0,-5.6 3.2,-6.3 z m 68,75.4 1,-168 -21.5,0.3 -0.1,12.6 -8.6,1 -0.7,118.5 13.6,2.1 -0.2,31.4 z m -11.3,-116.4 2.2,0.6 -0.1,9.6 -2.2,-0.6 z m -0.1,26.4 2.2,0.6 -0.1,9.6 -2.2,-0.6 z m -0.2,27.8 2.2,0.6 -0.1,9.6 -2.2,-0.6 z m -0.1,26 2.2,0.6 -0.1,9.6 -2.2,-0.6 z m -203.9,-104 29.9,2.9 0.3,0.4 0.4,-0.3 3.6,0.4 146.8,-16.5 -0.1,24 -181.1,18.9 z m 123.9,128.6 -30.7,-5 h -0.2 l 0.2,-27.6 100.8,15.4 -0.1,26.1 z m -85.6,-131.2 151.4,-17 0.1,-13.1 32.2,-0.5 -1,174.1 12.1,1.5 0.1,-25.6 c 0,-0.3 1,-24.4 22.2,-30.8 6.6,-2 12.1,-1.3 16.4,2.2 9.9,8 8.4,28.2 8.3,29 l -0.1,21.6 4.5,3.1 1.5,-254.4 -66.7,9.7 -0.2,35 -2,2 2,0.7 -0.1,17.9 -1.9,0.2 0.1,0.4 -149.3,22.7 z m 235.9,-91.4 c 1.1,0 1.9,2.1 1.9,4.7 0,2.6 -0.9,4.6 -1.9,4.6 -1,0 -1.9,-2.1 -1.9,-4.6 0,-2.6 0.8,-4.7 1.9,-4.7 z m -0.5,89.2 c 1.1,0 1.9,2.1 1.9,4.7 0,2.6 -0.9,4.6 -1.9,4.6 -1,0 -1.9,-2.1 -1.9,-4.6 0,-2.7 0.8,-4.7 1.9,-4.7 z m -13.7,62.8 -5.2,0.5 0.1,-26.2 c 0,0 -0.1,-4.6 2.7,-5.4 2.9,-0.8 2.5,4.6 2.5,4.6 z m 0.6,-115.2 -0.1,26.5 -5.2,0.5 0.1,-26.2 c 0,0 -0.1,-4.6 2.7,-5.4 2.9,-0.8 2.5,4.6 2.5,4.6 z m -3.1,-34.8 c 1,0 1.9,2.1 1.9,4.6 0,2.6 -0.9,4.6 -1.9,4.6 -1.1,0 -1.9,-2.1 -1.9,-4.7 0,-2.4 0.9,-4.5 1.9,-4.5 z m -0.5,89.2 c 1,0 1.9,2.1 1.9,4.7 0,2.6 -0.9,4.6 -1.9,4.6 -1.1,0 -1.9,-2.1 -1.9,-4.6 0,-2.6 0.9,-4.7 1.9,-4.7 z m -16.2,-86.7 c 1.1,0 1.9,2.1 1.9,4.6 0,2.6 -0.9,4.6 -1.9,4.6 -1.1,0 -1.9,-2.1 -1.9,-4.6 0,-2.6 0.9,-4.6 1.9,-4.6 z m -0.5,89.1 c 1.1,0 1.9,2.1 1.9,4.6 0,2.6 -0.9,4.6 -1.9,4.6 -1.1,0 -1.9,-2.1 -1.9,-4.7 0,-2.4 0.9,-4.5 1.9,-4.5 z m -148.1,261.6 0.5,-90.5 30.8,5.8 -2.1,0.2 -0.6,104.4 c -0.3,-0.1 -0.7,-0.2 -0.9,-0.3 -3,-1.7 -4.9,-1.1 -6.3,-0.7 -1.1,0.3 -2.1,0.6 -4.3,0 -0.2,-0.5 -0.3,-1.6 -0.5,-2.5 -0.3,-2 -0.7,-4.8 -2,-7.8 -1.6,-3.6 -3,-4.8 -5.8,-4.9 -0.8,0 -1.5,-0.1 -3,-1.3 -2.4,-2 -4.2,-2.5 -5.8,-2.4 z m 168,-381.8 v 6.6 l 25.8,-3.8 0.5,-95 -76.7,10.5 8,7.9 -0.1,9.8 2,4.9 -0.4,70.2 -3.7,1.9 20.7,-3 v -4.8 l -0.9,-1.6 0.2,-42.3 h 2 l 1.1,-4.8 v -4 l -0.7,-1.2 c 0,0 -1.2,-8.1 3.6,-9.4 4.1,-1 3.3,8.5 3.3,8.5 l -1.4,1.1 v 3.8 l 3.3,4.5 -0.2,41.8 -2.7,1.3 v 5.9 l 8.8,-1.3 v -5.5 l -0.9,-1.6 0.2,-42.3 h 2 l 1.1,-4.8 v -4 l -0.7,-1.2 c 0,0 -1.2,-8.1 3.6,-9.4 4.1,-1 3.3,8.5 3.3,8.5 l -1.4,1.1 v 3.8 l 3.3,4.5 -0.2,41.8 z m 7.6,-45.1 h 2 l 1.1,-4.8 v -4 l -0.7,-1.2 c 0,0 -1.2,-8.1 3.6,-9.4 4.1,-1 3.3,8.5 3.3,8.5 l -1.4,1.1 v 3.8 l 3.3,4.5 -0.2,41.8 -2.7,1.3 v 7.2 l -7.6,1.3 v -6.3 l -0.9,-1.6 z m -246.7,55.7 -20.6,15.8 -0.3,59.8 42,0.2 0.3,-57.8 z m 4.6,66.5 -9.8,-0.1 0.2,-38.5 c 0,0 0,-6.3 5,-6.2 4.9,0 4.9,6.3 4.9,6.3 z m 65.2,133.7 21,3.2 v -1.4 l 0.1,-24 c 0,0 -0.9,-14 -9.2,-20.2 -4.1,-3 -9.4,-3.7 -16,-2.1 -24.6,6.1 -24.5,34.9 -24.5,35.2 l -0.1,13.9 28.3,-4.5 z m -3.7,-12.6 c 0,0 0,-5.5 3.2,-6.3 3.5,-0.8 3.1,5.1 3.1,5.1 v 6.1 l -6.3,0.9 z m 5.6,87.7 v 0 l 0.2,-36.2 h 0.1 l 27.7,4.5 -0.2,37 z m 428,70.5 44.4,33.3 v 0 c -1.5,0.6 -2.9,1.1 -3.9,1.3 -2,0.5 -2.5,0.1 -5,-1.7 l -0.9,-0.6 c -2.8,-2 -5.8,-1.4 -7.8,-1 -0.6,0.1 -1.5,0.3 -1.7,0.2 -1.2,-0.5 -3.9,-2.7 -5.5,-4 l -1.4,-1.3 -1.7,1 c -2.4,1.4 -5.1,2.6 -5.8,2.7 -1.1,0 -3.7,-0.6 -6.1,-2.3 -3.1,-2.1 -6.9,-1.9 -7.9,-1.8 -1,0 -5.3,0 -7.5,0.4 -1.6,0.2 -13.5,-0.8 -24.1,-1.9 -1.3,-0.4 -6.8,-1.8 -11.3,-0.9 -3.4,0.7 -5.8,1.6 -8,2.4 -0.8,0.3 -1.5,0.6 -2.2,0.8 -0.8,0.3 -0.8,0.3 -2.7,-1.7 l -0.8,-0.8 c -3.1,-3.1 -5.4,-3.6 -8.3,-1.7 -0.3,0.2 -0.6,0.4 -1.1,0.7 -0.8,0.6 -3.3,2.4 -4.2,2.4 -1.6,0 -5.5,-1.6 -6.6,-2.3 -0.3,-0.2 -0.8,-0.5 -1.3,-0.8 -0.8,-0.5 -1.7,-1 -2.7,-1.8 l 46.6,-24.9 z m -362.5,37 c 0.7,-1.9 2.8,-5.3 9.9,-6.4 6.5,-1.1 9.3,1.7 11.4,3.8 0.9,0.8 1.5,1.5 2.3,1.8 0.5,0.2 1.1,0 2.2,-0.4 1.3,-0.5 3,-1.1 4.9,-0.2 1.9,0.9 2.8,2.9 3.3,4.3 1.4,4 3.6,6.3 4.5,7.1 l 13.5,2.2 c 1,0.2 9,2 11.9,3.4 2,1 8.2,4.1 10.9,9.2 l 0.3,0.5 c 0.4,-0.2 0.8,-0.4 1.4,-0.7 0.9,-0.4 1.5,-1 2.1,-1.6 1.7,-1.8 4,-3.5 8.3,-0.9 3.2,1.9 7.5,3.4 10,4.2 l 0.5,-88.9 -7.5,-16.3 -117,-16.2 v 3.4 l -4.3,0.4 -0.6,100.1 c 0.2,0 0.4,0 0.6,0 2.7,0 4.9,0 6.2,1.4 1.1,1.1 3.6,3.3 6.8,5.6 l 0.7,0.5 c 1.1,0.8 3.1,2.2 3.7,2.2 1.8,-1.7 3.8,-1.9 5.3,-2 2.1,-0.2 2.4,-0.3 2.9,-1.5 0.7,-1.9 0.6,-2.7 0.5,-3.6 -0.2,-1.2 -0.4,-2.7 0.7,-5.1 1.2,-3.1 3.4,-5.2 4.6,-6.3 z m 76,-71 2.1,0.5 -0.1,20.3 -2.1,-0.4 z m -27.8,-2.9 2.1,0.5 -0.1,20.3 -2.1,-0.4 z m -12.4,-1.5 2.1,0.5 -0.1,20.3 -2.1,-0.4 z m -12.6,-1.6 2.1,0.5 -0.1,20.3 -2.1,-0.4 z m -12.4,-1.9 2.1,0.5 -0.1,20.3 -2.1,-0.4 z m -12.6,-1.3 2.1,0.5 -0.1,20.3 -2.1,-0.4 z m -10.8,19.1 -2.1,-0.4 0.1,-20.4 2.1,0.5 z m 170.6,48.2 c -0.1,0.4 0,0.8 0,1.2 -0.5,0.4 -1,0.8 -1.2,0.8 -0.7,-0.1 -1.7,-0.6 -2.9,-1.1 -1.7,-0.7 -3.8,-1.7 -6.7,-2.5 -2.9,-0.8 -4.5,-0.6 -5.5,-0.4 -0.7,0.1 -0.9,0.1 -1.9,-0.5 -3.2,-1.8 -6,-1 -7.8,-0.5 -0.5,0.1 -1.2,0.4 -1.5,0.3 -1.2,-0.2 -3.5,-0.3 -6.7,-0.3 l 0.3,-46.5 11.2,-17.8 67.1,49.2 v 0.5 h 0.7 l 3.4,2.5 -0.1,24.3 c -1.5,-1.1 -2.6,-3.1 -3.6,-5 -0.8,-1.4 -1.5,-2.7 -2.4,-3.6 -1.9,-2 -10.9,-6.1 -14.7,-7.8 l -0.7,-0.2 c -0.5,-0.1 -3.8,-0.4 -16.1,1.7 -7.6,1.4 -10.5,2.9 -10.9,5.7 z m -55.6,4.7 0.3,-55.6 -6.8,-14.9 h 7.3 v -0.5 l 10.2,16.7 -0.3,46.7 c -2.7,0.1 -6.2,1.2 -9,4.9 -0.3,0.4 -0.8,1.1 -1.4,2.1 -0.1,0.3 -0.2,0.4 -0.3,0.6 z m 105.7,-85 c 0.3,-3.2 1.8,-11.5 4.7,-17.1 3.5,6.8 4.5,16.9 4.5,16.9 l -0.5,80.9 h 0.3 l -0.7,2.1 -4.7,9.6 c 0,0 0,0 0,0 l 0.2,-29.9 -4.1,-3 z m 14.5,-0.4 c -0.1,-0.6 -1.4,-14.1 -6.7,-21.9 l 30.9,4.3 -0.3,48.9 h -4.5 l -0.1,22 26.5,9.9 -17.4,9.2 c -1.1,-0.8 -2.1,-1.4 -2.9,-1.9 -0.9,-0.5 -1.6,-0.9 -2.3,-1.5 -2.9,-2.4 -7.9,-1.3 -12,-0.3 -1,0.2 -2.3,0.5 -2.7,0.5 -2.1,0 -5.9,1.9 -8.9,3.6 z m -120.4,112.4 v -1.4 c 0.2,0.1 0.3,0.3 0.5,0.4 -0.1,0.3 -0.3,0.7 -0.5,1 z M 2031,928.4 c -0.7,1.7 -4.7,1 -4.7,1 l 0.1,-18.3 -2,-2.7 0.3,-47.8 2.2,-3.2 -2.7,-2.5 0.3,-48.1 2,-2.3 -2.2,-1.5 0.2,-31.4 1.9,-2.7 -2.2,-1.5 0.3,-49.6 1.5,-3.2 -1.2,-1.7 0.2,-34 0.1,-0.1 -64.8,-10.8 -1.5,257.7 h -0.5 l 5,3.5 0.2,-31.7 c -0.1,-0.6 -1.4,-20.8 8.6,-28.7 4.3,-3.4 9.8,-4.1 16.4,-2 21.1,6.6 21.8,30.8 21.8,31 l -0.2,29.8 29.1,4 c -0.4,-0.6 -0.7,-1.1 -0.7,-1.4 0,-1 -1.3,-1.7 -2,-3.4 -0.7,-1.7 -1.7,-0.7 -3.3,-0.7 -1.5,-0.1 -1.5,0.6 -2.2,2.3 z m -59.9,-143.1 c -1.1,0 -1.9,-2.1 -1.9,-4.7 0,-2.6 0.9,-4.6 1.9,-4.6 1,0 1.9,2.1 1.9,4.7 0.1,2.6 -0.8,4.6 -1.9,4.6 z m 0.6,-89.1 c -1.1,0 -1.9,-2.1 -1.9,-4.7 0,-2.6 0.9,-4.6 1.9,-4.6 1,0 1.9,2.1 1.9,4.6 0,2.6 -0.9,4.7 -1.9,4.7 z m 16.7,-7.1 c 1.1,0 1.9,2.1 1.9,4.7 0,2.6 -0.9,4.6 -1.9,4.6 -1,0 -1.9,-2.1 -1.9,-4.7 -0.1,-2.5 0.8,-4.6 1.9,-4.6 z m 1.8,124.4 -0.1,26.2 -5.2,-0.5 0.2,-26.5 c 0,0 -0.3,-5.4 2.5,-4.6 2.8,0.8 2.6,5.4 2.6,5.4 z m -4.3,-30.6 c 0,-2.6 0.9,-4.6 1.9,-4.6 1.1,0 1.9,2.1 1.9,4.7 0,2.6 -0.9,4.6 -1.9,4.6 -1.1,-0.1 -1.9,-2.1 -1.9,-4.7 z m 4.8,-58.2 -0.1,26.2 -5.2,-0.5 0.2,-26.5 c 0,0 -0.3,-5.4 2.5,-4.6 2.8,0.8 2.6,5.4 2.6,5.4 z m 13.7,65.5 c -1.1,0 -1.9,-2.1 -1.9,-4.6 0,-2.6 0.9,-4.6 1.9,-4.6 1,0 1.9,2.1 1.9,4.7 0,2.4 -0.8,4.5 -1.9,4.5 z m 0.5,-89.2 c -1.1,0 -1.9,-2.1 -1.9,-4.7 0,-2.6 0.9,-4.6 1.9,-4.6 1,0 1.9,2.1 1.9,4.7 0.1,2.5 -0.8,4.6 -1.9,4.6 z m 75.5,289.7 h -1.1 l 0.2,-39.5 28.8,1.4 33.3,-2.7 -0.1,24.2 -50.1,22.6 z m 160.1,56.6 -34.9,-26.2 0.4,-76.5 c 9,0.9 21.4,2.7 21.4,2.7 l 45.5,-33.9 63.1,0.4 c 0,0 7.3,65.8 10.9,80.6 3.6,14.8 18.2,38.7 23.5,48.1 5.3,9.4 13.2,33.9 12.9,37 -0.1,0.5 0.1,0.9 0.5,1.3 0,0 0,0 0,0.1 -0.5,0.9 -1.2,1.8 -2.6,3.6 -3.5,4.3 -1.8,7.8 -0.4,10.5 0.6,1.2 1.2,2.4 1.6,3.9 1.1,4.6 3.3,5.9 5.6,7.3 1.1,0.7 2.3,1.4 3.7,2.6 2,1.9 1.6,3.8 0.7,7.1 -0.3,1 -0.6,2.1 -0.7,3.2 -1.2,0.2 -4.7,-0.8 -7.2,-2.2 -0.8,-0.4 -1.5,-0.8 -2.2,-1.1 -2,-1 -3.2,-1.5 -4.8,-4.6 -1.9,-3.4 -3.4,-4.3 -5.7,-4.6 -0.6,-0.1 -0.9,-0.1 -1.6,-0.7 -1,-0.9 -1.8,-1.6 -2.6,-2.4 -1.7,-1.6 -3.4,-3.2 -6.5,-5.4 -2.5,-1.8 -4.3,-2.1 -5.5,-2.3 -1.1,-0.2 -1.6,-0.3 -2.9,-1.8 -0.9,-1 -1.6,-1.9 -2.2,-2.6 -1.8,-2.2 -2.9,-3.6 -7.1,-6.8 -2.3,-1.8 -2.3,-2.4 -2,-4.8 0.2,-1.4 0.3,-3.2 0,-5.5 -0.7,-4.9 -3.4,-5.7 -6,-5.8 -1,0 -1,-0.1 -1.1,-0.3 -0.8,-1.1 -1.5,-2.2 -2.1,-3.4 -1.3,-2.1 -2.6,-4.3 -4.7,-6.7 -0.6,-0.7 -1,-1.2 -1.4,-1.7 -1.9,-2.3 -2.6,-3 -7,-6.4 -0.6,-0.5 -1,-0.8 -1.2,-1 0.1,-0.1 0.2,-0.3 0.3,-0.4 0.8,-1.3 2,-3.1 2,-6.3 0,-5 -4.3,-9.5 -7.8,-13.1 -1.4,-1.4 -2.7,-2.7 -3.2,-3.6 -1.7,-2.8 -2.5,-3.6 -3.9,-5.2 -0.6,-0.6 -1.2,-1.3 -2.1,-2.4 -1.4,-1.6 -2.4,-3.2 -3.6,-5.1 -1.2,-2 -2.7,-4.3 -4.8,-6.9 -4.4,-5.4 -8.2,-5.9 -11,-6.2 l -0.6,-0.1 c -1.8,-0.2 -3.3,0.7 -4,2.3 -1.2,3 0.6,8.7 2.9,10.4 0.3,0.2 0.4,1.9 0.5,3.2 0,0.9 0.1,1.9 0.2,3 0.3,2.8 -1.1,7.5 -1.7,9 -0.5,1.2 -1.4,2.7 -2.1,2.9 -2.7,1.1 -5.3,4 -7.7,8.8 -2.1,4.1 -0.3,7.2 1.3,10.3 0.2,0.3 0.3,0.6 0.5,0.9 -0.6,-0.1 -1.2,-0.2 -1.7,-0.2 -1.3,0 -3.3,-0.7 -5.5,-1.6 -1.4,-0.5 -2.8,-1 -4.4,-1.5 -3.1,-0.9 -5.1,-1.4 -7.1,0.7 -1.4,0.3 -6.3,0 -9,-0.8 -1.6,-0.3 -3.2,-0.2 -4.9,0.2 z m -131.6,-25.6 -34.2,-12.8 0.1,-12.9 h 4.2 l 12.2,6.7 55.7,-25.2 0.2,-28.1 29.4,0.2 c 0,0 15.5,-5.6 22.5,-5.6 0.5,0 1.1,0 1.8,0.1 l -0.4,73 -8.3,-6.2 -40.4,-4.6 -49.6,26.5 0.2,0.4 c -0.7,-0.4 -1.4,-0.6 -2.2,-0.6 -3.6,0 -8.1,4.4 -10.5,7.2 -1.7,-0.3 -5,-1.1 -6.9,-3.7 -0.1,-0.1 -0.2,-0.2 -0.2,-0.3 z"
     id="path11"
     inkscape:connector-curvature="0"
     style="fill:none" /></g>
</svg>